<svg
    xmlns:mapsvg="http://mapsvg.com"
    xmlns:dc="http://purl.org/dc/elements/1.1/"
    xmlns:rdf="http://www.w3.org/1999/02/22-rdf-syntax-ns#"
    xmlns:svg="http://www.w3.org/2000/svg"
    xmlns="http://www.w3.org/2000/svg"
    mapsvg:geoViewBox="125.384480 38.612150 130.921968 33.194037"
    width="524.23737"
    height="630.5871"
>

    <path
        d="m 298.06429,351.13884 -0.78,1 -0.8,3.59 -1.08,0.6 -2.42,-0.89 0,0 -1.53,0.37 0,0 -3.49,2.5 -2.41,0.06 0,0 -0.73,-3.43 -4.06,-4.99 0.31,-2.81 1.87,0.62 1.56,1.25 2.19,0 0.62,-2.49 -3.12,-3.44 1.25,-3.12 1.25,-2.81 5.3,-0.93 -0.31,-1.87 -2.81,-2.19 -4.68,-0.31 0.31,-3.12 1.25,-2.81 2.19,-3.12 2.18,-0.62 1.87,-1.25 0.63,5.61 2.49,0 0.94,-3.12 2.5,-4.99 5.92,-1.25 2.81,-3.12 3.43,-0.93 3.12,0.31 3.75,3.12 0,4.37 0.62,3.12 1.88,4.05 -0.94,2.19 -3.43,1.25 -1.56,3.43 0,3.12 -2.5,0.31 0,1.87 1.25,1.56 0,4.06 -3.43,1.25 -1.57,1.87 -2.8,-0.31 -0.63,-2.81 -3.12,0 -2.18,1.25 -1.56,2.5 z"
        title="Daegu"
        id="KR-27"
    />
</svg>
