<svg
    xmlns:mapsvg="http://mapsvg.com"
    xmlns:dc="http://purl.org/dc/elements/1.1/"
    xmlns:rdf="http://www.w3.org/1999/02/22-rdf-syntax-ns#"
    xmlns:svg="http://www.w3.org/2000/svg"
    xmlns="http://www.w3.org/2000/svg"
    mapsvg:geoViewBox="125.384480 38.612150 130.921968 33.194037"
    width="524.23737"
    height="630.5871"
>

    <path
        d="m 192.76429,261.00884 0.31,0.17 0,0 0.48,-0.09 0.98,-2.28 0,0 0.61,-0.64 0,0 1.39,0.18 -0.32,1.3 0,0 -0.07,0.64 0,0 0,0.26 2.86,-2.66 0,0 2.5,2.5 0,0 0.24,2.62 0.65,0.75 1.78,0.41 -0.32,1.63 0.77,0.21 1.25,2.18 -1.25,0.31 -1.56,1.56 0,0 -0.94,5.62 0,0 -1.25,6.24 1.17,3.75 0,0 -3.35,2.18 -2.18,2.81 -3.75,-2.19 -2.18,-3.74 0,-1.87 -0.63,-1.56 -1.56,0 0.32,3.12 -0.63,4.99 -0.93,2.19 -1.25,0 -0.94,-3.13 -2.5,-0.93 -1.56,-2.19 -0.31,-3.43 -2.18,-1.87 -0.31,-4.06 2.18,-2.49 -0.31,-8.74 0,0 2.52,-0.58 0,0 0.91,-0.04 3.43,-1.56 0.94,-2.81 0.33,-3.29 -0.31,-0.04 0,0 -0.23,-0.31 3.95,-0.42 z"
        title="Daejeon"
        id="KR-30"
    />
</svg>
