<svg
    xmlns:mapsvg="http://mapsvg.com"
    xmlns:dc="http://purl.org/dc/elements/1.1/"
    xmlns:rdf="http://www.w3.org/1999/02/22-rdf-syntax-ns#"
    xmlns:svg="http://www.w3.org/2000/svg"
    xmlns="http://www.w3.org/2000/svg"
    mapsvg:geoViewBox="125.384480 38.612150 130.921968 33.194037"
    width="524.23737"
    height="630.5871"
>

    <path
        d="m 281.58429,0.358837 1.42,2.81 2.15,2.75 0.58,-0.17 0.78,1.74 -0.02,0.73 -0.53,0.54 0.69,0.8 -0.08,0.54 1.15,1 -0.58,1.3 0.37,0.8 0.79,0.21 -0.16,1.46 1,0.77 -0.18,0.84 0.68,0.37 2.2,2.9 -0.44,0.57 -0.16,-0.3 -0.53,0.23 -0.05,1.71 3.78,5.8 1.74,1.8 -0.63,0.44 0.26,1.66 1.6,2.24 -0.03,1.46 2.32,2 -0.24,1.7 1,1.87 0.07,2.06 3.42,5 0.58,0.2 -0.74,0.4 -0.08,0.73 2.03,2.73 -0.92,0.99 0.5,1.87 -0.16,0.93 0.58,1.26 0.91,1.3 0.69,0.26 0.97,2.13 1.42,1.73 1.6,1.16 0.71,3.03 4.04,4.31 1.1,0.1 -0.5,1.89 3.76,6.17 1.68,1.2 -0.08,1.06 3.28,3.35 0.82,0.39 0.39,0.86 -0.47,1.63 1.86,2.65 2.52,2.38 0.24,1.46 9.51,10.030003 3.7,5.02 3.75,3.44 -0.29,2.47 -0.55,0.17 -0.52,1.06 0.16,0.95 2.38,3.24 4.5,3.69 0.36,1.82 -0.94,1.94 1.26,2.25 -0.32,0.69 1.39,1.98 -0.39,0.26 1.76,1.38 3.41,3.92 1.11,5.04 4.83,3.75 0.08,2.24 0.91,1.15 0.71,3.49 1.84,1.61 1.03,-0.1 0.47,2.53 0.63,-0.26 1.02,0.33 -0.05,0.66 0.87,0.42 -0.27,1.81 2.13,1.94 0.05,1.05 0.63,0.43 -1.47,1.11 0.71,1.78 -0.84,2.39 0.55,2.59 1.21,1.22 0.95,2.46 0.58,0.26 -0.32,1.18 0.81,0.84 0,0 -4.27,0.71 0,0 -1.87,2.19 -2.5,0.93 -2.81,2.5 0,0 -1.56,2.18 0,1.25 0,0 1.56,2.81 -6.54,0.16 0,0 -2.65,-2.27 -2.95,-1.03 -2.62,-0.4 -2.54,2.52 -1.01,-0.2 -3.07,-1.74 -3.35,-0.68 -1.17,-0.03 -2.18,0.75 -0.68,-1.33 -1.72,-0.68 0,0 -0.93,0.59 -1.98,3.72 0,0 -0.93,1.24 -4.06,0 -3.43,-2.8 -2.81,-1.56 -2.02,0.18 -0.65,2.32 0.11,2.4 -0.37,0.75 -0.75,0.37 -1.45,-0.96 -1.61,-0.42 -1.92,0.26 -3.09,-2.1 -1.17,-0.24 0,0 -1.73,-1.35 0,0 -0.64,-0.79 0,0 -2.14,0.26 0,0 -1.35,-0.05 -3.96,-1.27 0,0 -1.62,-0.72 -1.97,-2.2 -1.66,-0.52 -0.35,0.43 0,0 -0.94,0.43 0,0 -3.29,0.58 -0.82,-0.25 -0.31,0.59 -0.76,0.12 -0.82,-1.39 0,0 -0.18,-0.83 0,0 -1.15,-0.53 0,0 -0.46,-0.29 0,0 0.01,-1.95 0,0 0.09,-0.67 0,0 -0.96,-0.81 -1.46,0.33 -2.42,-0.19 0,0 -0.86,0.05 -1.19,1.25 0,0 -1.47,0.14 -0.5,0.52 0,0 -0.7,0.47 -2.31,-1.77 0,0 -0.66,-1.69 1.52,-1.27 0,0 1.74,-0.76 0,0 2.36,-2.73 0.1,-1.36 -0.58,-0.53 -0.97,0 -1.37,0.83 0,0 -1.05,0.27 0,0 -1.71,-0.24 -1.48,-1.73 -2.12,-0.43 -1.98,-1.51 -2.46,0.59 -1.12,0.93 -0.67,1.51 -0.68,0.1 -2.97,-1.01 -1.59,1.78 -2.09,1.3 0,0 -2.13,0.37 0,0 -2.04,0.82 0,0 -0.9,-0.33 0,0 -0.34,-0.47 0.06,-3.37 0,0 -1.77,-3.31 0,0 -2.05,-0.52 0,0 -2.22,0.08 -1.5,0.94 0,0 -2.38,1.69 -0.46,1 0.28,2.7 0.71,1.99 -0.42,1.8 -2.04,0.79 -0.44,0.95 -0.67,0.36 -2.33,-1.15 -3.03,0.09 -1.45,1.88 -2.19,0.93 -4.05,-3.12 -0.62,-3.48 0,0 0.62,-7.44 -0.63,-3.43 1.56,-1.25 -0.31,-7.49 3.43,-8.11 0.32,-4.06 -1.96,-0.71 -0.78,-2.38 2.77,-3.14 0.36,-0.89 2.07,-0.7 0.79,-2.19 -1.27,-1.55 -0.38,-1.35 -2.24,0.17 -0.86,-0.79 -2.28,-0.62 -3.59,-0.12 -4.31,-3.7 -2.69,-0.32 -1.81,-1.46 -2.3,-1.02 -3.64,1.4 -1.28,-0.91 -1.36,-1.94 1.75,-3.51 0.31,-4.39 -1.56,0.56 -0.74,-0.14 -0.66,0.64 -0.63,-0.15 0.12,-2.03 2.16,-1.85 0.54,-1.23 -1.32,-3.5 0.01,-0.92 0.81,-1.04 -0.2,-1.75 -0.64,-1.200003 0.58,-1.52 2.27,-0.76 1.8,-2.06 2.61,-0.57 0.7,-0.5 1,-3.97 -0.82,-4.03 -1.45,-1.59 -2.01,-0.39 -2.19,-1.03 -0.08,-2.71 -0.88,-0.6 -3.22,0.34 -3.1,-1.53 -1.25,-1.59 -0.3,-1.43 -0.41,-7.51 -1.42,-1.98 -0.74,-0.09 -1.22,1.14 -0.7,-0.96 -1.39,-0.59 -1.49,0.19 -2.37,0.81 -1.21,1.41 -0.53,-0.28 -1.91,-2.18 -1.36,-0.22 -1.19,-1.19 -0.32,-1.97 0.55,-1.12 0.25,-2.23 1.09,-0.92 -1.97,-0.88 -0.57,0.04 -1.41,1.31 -1.68,2.39 -2.44,0.17 -1.64,-0.84 -0.51,-0.93 0.12,-2.26 -1,0.31 -0.18,-1.07 0.63,-1.87 -1.56,-1.25 -0.94,-5.31 -4.68,0 0,-1.87 1.25,-0.94 -4.74,-4.41 0,0 0.99,-1.18 3.05,-2.08 1.11,-0.23 2.26,0.62 3.7,-1.29 2.99,-1.77 3.41,0.52 1.61,1.19 1.5,-0.4 1.69,0.29 1.14,-0.95 2.09,0.01 1.88,-1.02 2.04,-0.11 1.97,0.83 1.25,1.07 1.57,-0.16 2.22,0.84 2.22,1.42 5.31,-3.21 2.93,-1.03 1.45,0.32 1.16,1.12 1.5,0.09 2.28,-0.5 2.67,0.67 1.95,-1.31 5.79,0.29 2.54,-1.4 0.62,0.36 0.71,1.79 2.34,2.45 2.13,-0.92 1.79,-0.19 0.82,-0.45 1.3,-1.79 6.29,1.84 1.78,-0.43 6.45,1.44 2.96,-0.46 2.98,-2.44 2.64,0.1 0.7,-0.38 2.93,-2.96 3.87,-2.45 1.29,-2.11 1.76,-1.15 3.77,-3.69 2.16,-4.61 -0.23,-1.44 1.05,-3.15 -0.53,-9.08 0.56,-0.74 z"
        title="Gangwon"
        id="KR-42"
    />
</svg>
