<svg
    xmlns:mapsvg="http://mapsvg.com"
    xmlns:dc="http://purl.org/dc/elements/1.1/"
    xmlns:rdf="http://www.w3.org/1999/02/22-rdf-syntax-ns#"
    xmlns:svg="http://www.w3.org/2000/svg"
    xmlns="http://www.w3.org/2000/svg"
    mapsvg:geoViewBox="125.384480 38.612150 130.921968 33.194037"
    width="524.23737"
    height="630.5871"
>

    <path
        d="m 151.37429,399.96884 -1.95,-2.34 -1.82,-0.87 -2.44,-0.09 -2.44,0.96 -2,1.04 -2.01,2.09 -1.48,0.09 -2.09,-0.7 -1.48,-1.39 -0.61,-2.18 -2.18,-0.08 -2.09,5.31 -2.35,-0.09 -1.74,2.09 -1.13,4.79 0.43,4.09 7.23,1.05 1.83,2.26 1.92,3.84 3.74,0 3.4,-2.01 3.83,0 1.48,-1.04 3.14,0.61 3.39,-2.35 1.4,-1.83 0.78,-1.66 0.09,-2.61 0.87,-1.83 0,-1.39 -2.09,-0.96 -2.61,-0.26"
        title="Gwangju"
        id="KR-29"
    />
</svg>
