<svg
    xmlns:mapsvg="http://mapsvg.com"
    xmlns:dc="http://purl.org/dc/elements/1.1/"
    xmlns:rdf="http://www.w3.org/1999/02/22-rdf-syntax-ns#"
    xmlns:svg="http://www.w3.org/2000/svg"
    xmlns="http://www.w3.org/2000/svg"
    mapsvg:geoViewBox="125.384480 38.612150 130.921968 33.194037"
    width="524.23737"
    height="630.5871"
>

    <path
        d="m 148.84429,592.92884 0.68,0.78 -0.45,0.6 0.79,-0.31 0.66,0.22 -0.52,0.53 0.39,1.16 -0.55,1.22 -2.07,-0.5 -0.45,-1.44 0.79,-1.97 0.73,-0.29 z m -4.62,15.13 -1.44,0.53 -1.71,1.75 -0.47,2.03 -2.47,2.48 0.16,1.44 -1.31,1.47 -2.13,0.47 -2.94,-0.56 -3.12,3.25 -2.42,0.16 -3.81,1.06 -0.76,-0.41 -2.02,0.31 -2.68,2.16 -0.08,0.78 -1.81,0.69 -0.87,-0.37 -0.13,-0.53 -1.71,-0.06 -0.52,1.28 -1.47,-0.87 -2.15,0.19 -1.6,0.81 -3.7,0.84 -1.1,-1.69 -0.74,-0.15 -2.340004,0.63 -1.34,-1.06 -0.52,0.06 -3.31,1.5 -4.23,-1.12 -3.1,2.03 0.03,2.97 -0.55,0.16 -0.31,-0.62 -0.52,-0.03 -0.95,0.62 -0.89,-0.59 0.24,-1.12 -0.84,-0.03 -2.13,-2.87 -2.99,-1.28 -1.89,-1.56 -1.84,-3 0.58,-3.31 -0.58,-1.81 0.42,-0.78 1.37,-0.69 0.03,-1.41 2.76,-1.78 1.18,-1.81 1.21,0.19 2.18,-2.5 0.45,-2.82 4.2,-1.69 0.08,-1.69 0.37,-0.28 1.94,-0.03 1.89,-0.53 0.24,-0.53 1.31,0.06 1.66,-1.35 0.47,-0.03 0.71,0.78 1.16,-0.88 4.150004,-1.1 1.26,-1 1.34,-0.09 0.34,-0.81 0.74,-0.41 2.02,0.6 1.26,-0.22 1.16,-0.75 0.97,0.44 1.26,-0.69 2.08,0.16 0.79,-1.16 3.7,-0.25 0.11,-0.81 1,-1.19 1.89,1.51 0.87,-0.28 0.24,-0.85 0.87,0.35 3.78,-1.25 3.18,0.38 0.24,-0.94 3.02,0.6 0.32,0.53 1.84,-0.6 0.92,0.1 0.1,1.41 1.21,1.6 1.08,0.09 0.68,0.85 1,-0.63 2.21,0.28 1.05,0.75 -0.42,1.32 1.02,0 0.34,0.94 -0.16,1.32 -0.81,0.09 -0.18,0.75 1.81,1.44 1.34,-0.5 0.13,0.88 0.95,0.81 -0.47,0.56 -1,-0.66 -0.81,1.22 -0.1,1.03 1.5,1.1 -0.73,0.88 -0.63,-0.5 0.26,-0.47 -0.87,-0.34 -1,4.65 z"
        title="Jeju"
        id="KR-49"
    />
</svg>
