<svg
    xmlns:mapsvg="http://mapsvg.com"
    xmlns:dc="http://purl.org/dc/elements/1.1/"
    xmlns:rdf="http://www.w3.org/1999/02/22-rdf-syntax-ns#"
    xmlns:svg="http://www.w3.org/2000/svg"
    xmlns="http://www.w3.org/2000/svg"
    mapsvg:geoViewBox="125.384480 38.612150 130.921968 33.194037"
    width="524.23737"
    height="630.5871"
>

    <path
        d="m 129.12429,307.63884 1.31,-0.55 1.48,1.36 4.37,-1.56 7.18,-3.44 0,-8.44 2.01,-0.67 2.68,-2.01 3.69,0.67 3.76,2.27 1.27,-0.38 2.19,2.01 0.31,3.74 2.44,0.2 0.02,1.21 0.51,0.81 2.55,0.18 1.48,-0.72 2.3,-0.23 1.9,-1.15 1.12,0.16 1.73,1.73 5.3,-0.31 -0.62,-2.5 4.36,0.31 0,0 2.42,-2.01 1.14,1.62 0,0 2.96,5.11 0.35,2.77 1.87,4.37 1.25,0 0,0 3.06,-1.72 0,0 0.61,0.16 0,0 0.07,2.18 0,0 0.63,2.81 3.43,0.31 3.12,-0.62 0.94,-1.87 0,0 0.15,-2.21 1.03,-0.18 0,0 1.89,-1 2.54,1.2 1.56,1.25 2.81,-2.81 0,-2.48 0,0 0.31,-0.33 0.79,-0.3 1.05,2.27 0,0 0.67,0.57 0,0 2.26,0.56 0,0 1.17,0.29 0,0 1.71,1.04 0,0 0.15,0.92 2.6,0 0,0 0.36,-0.91 0,0 0.89,-0.33 0,0 2.73,-1.62 0,0 1.37,-0.45 0,0 0.9,0.06 2,2.22 2.74,-2.56 0,0 3.48,5.66 1.23,3.31 -0.27,2.77 -1.01,2.24 0,0 -2.33,1.52 -1.51,2.68 -0.53,1.94 -1.33,0.24 -1.78,1.64 -1.46,0.01 0,0 -1.83,1.15 0,0 -1.3,0.06 0,0 -0.71,-0.5 0,0 -0.45,-0.16 -0.2,0.63 0,0 -0.19,0.59 0,0 -0.66,1.2 0,0 -0.81,2.29 -3.27,3.59 -1.67,1.15 -0.78,4.82 0,0 -0.16,1.92 -0.89,0.79 0,0 -0.94,1.45 -1.91,4.95 0,0 -0.78,4.73 0,0 -1.59,3.28 0,0 0.17,2.32 0,0 2.07,0.67 0.7,0.7 0,0 -0.08,1.86 0.5,1.05 0,0 1.27,2.27 0,0 -0.68,3.34 0,0 0.69,1.93 0,0 1.63,0.43 0,0 0.1,0.54 0,0 -0.56,3.47 -3.7,3.56 -0.82,1.99 -0.33,1.16 0.55,2.87 -2.22,2.3 0,0 -0.23,0.21 0,0 -3.07,-2.65 -3.31,-1.81 0,0 -1.03,-0.92 -3.51,-1.16 0,0 -2,0.11 0,0 -1.75,0.98 -2.95,3.79 -0.63,0.45 -1.12,0.02 0,0 -3.2,-0.37 -2.38,0.7 0,0 -6.15,0.02 -1.13,-0.65 0,0 -1.44,-1.38 -1.93,1.12 0,0 -3.16,-1.35 -1.3,0.83 0,0 -0.96,0.9 0,0 -1.43,0.95 -1.61,0.14 0,0 -2.09,-0.54 0,0 -2.6,-1.97 0.42,-3.61 -1.01,-2.88 0,0 -1.59,0.01 -0.49,-0.68 -0.08,-0.93 1.15,-1.38 0,0 0.15,-2.51 -0.61,-1.91 -1.35,-1.03 -1.81,-0.4 -0.71,0.32 -0.98,1.78 -1,0.65 -0.53,2.08 0,0 -0.14,1.02 0,0 -1.02,0.69 -1.97,-0.57 0,0 -1.04,-0.89 0,0 -2.52,-4.77 -1.1,-1.13 -2.95,-1.86 -3.02,-0.61 -1.57,1.87 -1.08,-0.22 0,0 -1.53,-0.35 0,0 -2.27,0.98 -0.61,0.81 -0.18,1.18 0,0 0.15,3.09 -0.59,0.68 0,0 -1.45,0.95 -0.15,0.68 0,0 0.26,0.77 0,0 0.14,0.96 -0.76,2.01 -2.42,1.22 0,0 -3.14,0.97 -1.53,1.49 0,0 -2.07,0.71 -0.97,-0.43 0,0 -1.11,-0.24 -0.99,0.36 -1.45,1.54 -4.35,0.23 0,0 -0.37,-1.7 -1.72,0 -1.24,-4.06 -1.88,-2.18 -0.15,-2.96 -0.78,-2.66 -1.87,-1.56 0,0 -1.88,-0.62 0,0 -1.94,-0.18 0.02,-0.42 -0.44,-0.13 -0.740004,0.44 -0.73,-0.21 3.310004,-5.62 0.86,-2.57 0.63,-0.25 0.32,-1.39 0.31,-0.09 0.37,1.12 0.68,0.26 0.48,-0.45 -0.5,-0.16 0.26,-0.96 1.79,-1.16 0.99,-0.13 1.21,1.06 0.74,-1.19 1.49,-0.9 2.55,0.32 0.24,1.26 0.23,-1 0.84,-0.87 0.45,-1.7 0.55,0.16 -0.05,-1.22 0.5,0.35 0.94,-0.77 1.6,0.48 1.97,2 0.5,1.06 0.08,-0.71 -0.73,-1.67 0.34,-0.9 -0.97,-0.58 0.15,-0.67 0.45,0.38 0.55,-0.77 -1.39,0.03 0,-0.51 -0.68,-0.61 -0.69,0.09 -0.68,-0.67 -0.29,0.87 -0.71,0.19 -0.76,-0.42 -0.79,0.93 -0.68,-0.03 0.08,-0.48 -0.63,-0.45 -0.42,0.77 -1.76,-0.26 -2.34,0.55 -0.81,-0.32 -1.16,1.09 -0.91,-0.06 -0.35,-1 -0.57,1.06 -1.71,-0.74 -1.1,-2.02 -1.24,0.58 -0.73,-1.64 0.39,-1.39 0.66,-0.51 -0.11,-0.48 -0.73,-0.07 -0.42,-0.48 0.86,-0.32 0.03,-0.55 1.08,0.1 0.86,-1.1 1.47,-0.58 3.34,-3.57 1.84,-1.19 1.15,0.61 1.55,-1.67 0.95,-0.45 1.76,-2.9 1.31,-1.35 -0.13,-3.58 -0.58,-0.74 1.05,-1.61 1.86,0.93 4.63,-0.71 4.49,1.2 2.1,1.74 0.5,2.22 0.84,0.81 0.68,-0.65 -1.23,-0.35 0.02,-1.55 0.58,-0.74 -0.69,-2.9 -4.01,-2.13 -3.28,-2.58 -1.47,-0.29 1.44,-1.48 3.2,-1.23 3.63,0.65 0.55,-0.42 1.13,0 0.92,-1.13 -0.34,-0.97 0.42,-1.13 1.78,-0.55 1.13,-0.87 -0.24,-0.45 -1.39,0.52 -1.05,-0.26 -1.49,0.32 -1.66,1.65 -2.81,-0.29 -2.15,0.77 -3.26,-1 -1.36,1.23 -5.18,-0.29 -0.31,-3.78 0.5,-2.78 -2.08,-0.67 -2.47,0.19 -0.02,-1.1 -1.89,-1.48 0.73,-0.91 2.76,-0.16 0.66,0.39 1.49,-0.58 0.95,0.16 0.21,0.84 0.71,-0.84 0.6,0.32 5.12,-1.13 1.66,-1.23 2.88,1.13 1.11,-0.68 0.6,-1.19 0.32,-1.33 z"
        title="North Jeolla"
        id="KR-45"
    />
</svg>
