<svg
    xmlns:mapsvg="http://mapsvg.com"
    xmlns:dc="http://purl.org/dc/elements/1.1/"
    xmlns:rdf="http://www.w3.org/1999/02/22-rdf-syntax-ns#"
    xmlns:svg="http://www.w3.org/2000/svg"
    xmlns="http://www.w3.org/2000/svg"
    mapsvg:geoViewBox="125.384480 38.612150 130.921968 33.194037"
    width="524.23737"
    height="630.5871"
>

    <path
        d="m 522.63429,128.21884 0.94,0.28 -0.73,0.38 -0.32,1.08 0.96,1.76 -0.73,2.61 0.94,0.68 -0.99,0.36 -0.85,0.96 -0.47,-0.17 -1.23,0.72 -0.75,1.9 -0.57,-0.56 -1.79,-0.58 -0.88,0.18 -1.47,-1.14 -1.6,-0.36 -0.65,-1.06 0.24,-2.44 -1.04,-1.2 0.03,-1.08 0.75,0.48 4.06,-2.08 1.41,0.08 1.44,-0.94 1.63,0.24 0.77,-0.86 0.73,0.04 0.17,0.72 z m -223.29,222.72 0,0 0.69,1.28 -0.47,3.05 0,0 0.79,2.37 0.9,1.29 2.12,1.69 0,0 0.94,1.08 1.39,0.7 0,0 5.88,-1.1 0,0 3.44,0.77 4,1.97 0,0 1.92,0.57 1.57,-0.56 3.95,-3.27 1.01,0.3 0,0 1.14,-0.44 1.81,-2.29 0,0 2.02,-1.42 0,0 2.1,0.04 0,0 1.34,0.1 1.59,0.77 0,0 1.29,0.71 0,0 2.42,0.87 0,0 0.96,-0.35 0,0 0.77,-0.79 3.92,-3.09 1.66,-0.17 0,0 0.67,0.13 0.66,-0.86 -1.35,-2.48 -0.22,-1.06 0.6,-0.49 4.16,-2.58 3.11,-1.02 1.63,0.3 2.59,-0.65 1.09,0.42 1.8,1.47 2.01,0.31 0.97,0.59 0.24,0.83 0,0 -0.43,2.84 0,0 0.29,0.77 0.73,0.34 0,0 1.98,0.65 0,0 1.43,-0.24 2.82,-1.84 1.12,-0.31 0,0 1.49,-0.01 0,0 4.89,1.73 0,0 1.76,0.42 0,0 3.01,0.22 -0.81,-0.26 0,-0.55 -0.63,-0.58 -0.24,-2.32 0.76,-0.39 0.5,-1.99 1.05,-0.1 0,-1.61 0.52,0.06 0.63,-1.35 -0.45,-1.83 1.24,-2.8 -0.13,-1.48 0.97,-1 -0.34,-0.81 0.26,-1.26 0.37,-0.19 -0.63,-1.9 0.97,-0.77 -0.26,-0.58 0.89,-0.9 0.34,0.19 0.24,-1.35 -0.52,-0.77 1.13,-1.52 -0.18,-1.35 0.68,-0.55 0.05,-1.1 0.79,-1 -1.6,-0.32 0.21,-0.81 0.89,-0.26 -0.44,-1.32 0.87,-0.74 -1.47,-2.36 -0.05,-0.87 1.44,-0.77 0.68,-1.68 0.81,-0.19 -0.18,-0.52 0.79,-1.45 -0.37,-1.19 1.39,-1.23 -0.03,-0.87 1.71,-2.26 -0.68,-0.94 0.5,-0.42 0.05,-0.42 -0.55,-0.35 0.4,-0.16 0.24,-1.13 -1.31,-2.59 0.1,-1.16 -0.97,-0.29 -0.21,-0.78 -1.23,0.29 -0.03,0.94 -0.89,1.36 -3.07,3.33 -0.05,1.33 -4.17,2.49 -0.3,1.19 -0.82,0.26 -2.54,-1 -0.42,-0.77 0.71,-0.84 -0.55,-0.52 -2.34,0.61 0.19,-0.74 0.74,-0.35 0.45,-0.81 1.39,0.32 0.89,-0.1 -0.02,-0.42 -2.6,-0.94 -1.68,1.16 -1,-1.65 0.66,-2.33 1.31,0 0.5,-0.78 1.65,-0.58 -0.18,-1.45 1.21,-1.07 0.1,-0.58 0.08,-0.97 -3.02,-2.49 -0.47,-1.13 0.63,-1.68 -0.02,-1.23 -0.6,-1.98 -0.18,-0.39 -1.21,-0.23 -0.84,-1.59 0.21,-0.71 0.84,-0.23 0.34,-1.3 -0.44,-1.3 0.45,-1 -1.23,-1.46 0.29,-1.95 0.52,-0.55 -0.68,-1.59 0.45,-0.26 0.29,-3.67 -0.26,-1.23 0.89,-1.85 -0.08,-0.97 1.68,-2.89 0.21,-1.04 0.47,0 1.65,-2.4 0.58,-1.92 -0.29,-1.69 0.42,-2.76 -0.37,-1.85 1.08,-0.98 0.11,-1.79 0.6,-0.23 -0.47,-0.78 -0.39,0 -0.29,-4.62 -2.13,-2.41 -0.58,-1.24 -0.18,-1.79 0.6,-0.29 -0.39,-2.51 0.47,-1.86 1.08,-1.2 0.84,-2.61 1.18,-0.98 1.31,0.07 0.4,-1.76 0.87,-0.65 -0.55,-2.58 0.55,-0.52 -0.03,-0.91 -0.81,-1.53 -0.1,-1.3 1.05,-1.11 -1.44,-2.38 -0.58,-3.23 -0.89,-1.04 -0.1,-1.01 -1.68,-1.86 -0.84,-2.42 0.24,-0.62 -0.63,-1.27 -0.08,-0.75 0.55,-0.56 -0.52,-1.34 0.55,-4.25 -1.18,-3.96 1.05,-1.86 -0.05,-1.41 -0.92,-2.78 0.68,-0.52 -0.39,-1.28 0.21,-1.24 0.63,-0.43 0.55,0.36 0.42,-0.29 -0.6,-1.05 -2.86,-2.1 -0.1,-0.62 -1.68,-1.47 -0.18,-1.18 0.55,-0.84 0,0 -4.28,0.72 0,0 -1.87,2.19 -2.5,0.94 -2.81,2.5 0,0 -1.56,2.19 0,1.25 0,0 1.56,2.81 -6.53,0.16 0,0 -2.66,-2.27 -2.95,-1.03 -2.61,-0.4 -2.55,2.52 -1.01,-0.19 -3.07,-1.75 -3.35,-0.67 -1.17,-0.03 -2.18,0.74 -0.68,-1.32 -1.72,-0.68 0,0 -0.93,0.6 -1.98,3.71 0,0 -0.94,1.25 -4.06,0 -3.43,-2.81 -2.81,-1.56 -2.02,0.18 -0.65,2.32 0.11,2.4 -0.36,0.76 -0.75,0.36 -1.46,-0.95 -1.61,-0.42 -1.92,0.26 -3.08,-2.1 -1.17,-0.24 0,0 -1.27,1.28 0,0 -0.93,0.88 -0.47,-0.23 0,0 -0.93,-0.33 0,0 -0.75,0.31 0,0 -1.45,2.14 -0.83,0.47 0,0 -0.62,0.28 0,0 -3.29,3.25 -2.8,0.81 0,0 -0.79,1.24 0,0 -0.47,1 -3.08,1.75 -0.09,0.88 -1.48,1.47 -1.58,3.32 0,0 -0.83,1.57 0,0 -0.05,1.33 1.31,0.61 0,0 0.53,0.81 0,0 0.26,2.1 -2.84,3.9 0,0 -1.43,0.3 0,0 -2.11,0.15 0,0 -0.45,0.33 0,0 -0.92,1.03 -2.44,-0.05 0,0 -1.64,0.44 -0.55,-0.25 0,0 -1.04,-2.8 -1.46,-2.12 -3.24,-1.85 -1.18,-1.97 0,0 -1.08,1.28 -0.28,1.02 0,0 -0.31,0.75 -1.13,0.34 -0.24,2.59 0,0 -0.2,0.64 0,0 -0.37,0.57 -5.2,-1.3 -0.5,-0.44 0,0 -0.42,-0.63 0,0 -1.06,-0.38 -0.61,0.63 0,0 -1.38,1.15 0,0 -1.15,1.94 0,0 -1.38,0.19 0,0 -1.64,-1.75 -0.51,0.31 -2.71,6.34 0,0 -0.16,0.35 0,0 3.24,4.45 0.15,0.8 -1.19,0.11 -3.41,-1.01 0,0 -1.18,-0.67 -1.21,0.59 0,0 -2.19,-1.02 0,0 -1.12,-0.61 0,0 -1.17,2.34 -1.71,1.39 -1.6,1.05 -2,0.12 0,0 -0.64,0.25 0,0 -1.68,2.38 0.48,2.22 0,0 -0.45,0.7 0,0 -2.21,1.91 0,0 -0.58,0.73 0,0 -0.94,1.51 -0.81,0.05 0,0 -1.56,0.35 0,0 -0.82,1 -0.17,0.91 0.73,1.1 5.37,1.13 1.22,1.22 -0.14,0.93 0,0 0.39,1.56 0.58,0.41 0,0 1.64,0.68 0.37,0.68 -0.42,1.71 0,0 -0.12,0.56 0,0 -1.89,0.33 0,0 -0.43,1.34 0,0 0.3,3.6 -0.67,2.69 0.6,1.18 0,1.3 -1.28,2.02 1.32,3.25 0,0 0.5,0.31 0,0 -1,2.56 -2.66,2.31 0,0 -0.07,4.29 0.37,0.79 1.79,0.99 0,0 1.85,-1.07 1.16,-1.51 0.41,0.02 0.46,1.44 2.24,0.8 0.26,0.68 0,0 0.09,0.5 0,0 0.98,0.32 0,0 0.78,0.75 0,0 0.34,0.5 0.84,-0.1 0,0 1.99,-0.84 0,0 2.23,-0.79 2.02,0.7 0,0 0.62,1.07 0,0 -0.36,1.07 0.51,2.1 0,0 0.57,1.31 0.69,0.57 0,0 -0.09,0.8 -1.15,0.55 -2.47,-1.48 -2.41,1.43 -1.18,1.74 0.08,1.19 1.1,1.77 -0.51,1.41 0.1,2.16 -1.76,1.46 0.18,0.92 -0.99,1.68 -0.23,2.04 -1.84,2.6 -0.75,0.33 -0.88,-0.67 -1.24,0.24 -1.08,1.07 0,0 3.48,5.67 1.23,3.31 -0.27,2.77 -1.01,2.25 0,0 0.13,1.94 0.57,0.87 1.14,0.9 1.56,-0.01 0,0 0.71,0.37 0,0 0.31,2.61 0.94,0.56 0,0 2.14,0.33 0,0 1.78,0.22 0.58,1.13 1.15,0.64 0,0 4.44,0.78 0,0 2.55,-0.26 0,0 1.49,0.75 0,0 1.54,0.75 0.49,0.74 0.78,2.88 0,0 0.66,0.5 0,0 2.07,0.99 0.66,1.15 -0.23,0.61 2.52,1.49 0.94,1.79 -0.24,2.21 -1.82,3.97 0,0 -0.27,1.66 0.89,1.64 0,0 3.8,1.49 2.25,-0.3 0,0 1.19,-0.31 0,0 2.96,-1.09 2.2,1.09 2.29,0.27 0,0 2.24,2.18 0,0 1.71,1.25 0,0 -0.73,-3.43 -4.06,-4.99 0.31,-2.81 1.87,0.62 1.56,1.25 2.18,0 0.62,-2.5 -3.12,-3.43 1.25,-3.12 1.25,-2.81 5.31,-0.94 -0.31,-1.87 -2.81,-2.18 -4.68,-0.31 0.31,-3.12 1.25,-2.81 2.19,-3.12 2.18,-0.62 1.87,-1.25 0.62,5.62 2.5,0 0.94,-3.12 2.5,-4.99 5.93,-1.25 2.81,-3.12 3.43,-0.94 3.12,0.31 3.74,3.12 0,4.37 0.63,3.12 1.87,4.06 -0.94,2.19 -3.43,1.25 -1.56,3.43 0,3.12 -2.5,0.31 0,1.87 1.25,1.56 0,4.06 -3.43,1.25 -1.56,1.87 -2.81,-0.31 -0.62,-2.81 -3.12,0 -2.18,1.25 -1.56,2.5 0.45,1.51 0,0 0.3,-0.22 0.81,-0.18 z"
        title="North Gyeongsang"
        id="KR-47"
    />
</svg>
