<svg
    xmlns:mapsvg="http://mapsvg.com"
    xmlns:dc="http://purl.org/dc/elements/1.1/"
    xmlns:rdf="http://www.w3.org/1999/02/22-rdf-syntax-ns#"
    xmlns:svg="http://www.w3.org/2000/svg"
    xmlns="http://www.w3.org/2000/svg"
    mapsvg:geoViewBox="125.384480 38.612150 130.921968 33.194037"
    width="524.23737"
    height="630.5871"
>

    <path
        d="m 181.53429,232.61884 1.56,2.18 -0.31,2.81 -2.19,0.63 2.81,3.43 0,2.81 0.45,1.35 3.34,0.2 -0.09,1.45 -0.83,1.83 1.08,1.14 -1.86,6.1 0.57,-0.78 0.4,-0.33 0.71,0.14 0.62,0.86 0.31,0.04 -0.33,3.29 -0.94,2.81 -3.43,1.56 -0.91,0.04 -2.52,0.58 0.31,8.74 -2.18,2.49 -1.71,-2.05 -1.75,-1.35 -1.22,-3.1 0.14,-4.05 -0.27,-2.83 -1.35,-3.91 -2.7,-1.48 -1.88,-2.56 -0.14,-2.02 1.08,-2.43 0,-3.1 -0.13,-3.5 -0.27,-3.37 0.67,-2.43 -0.27,-3.1 -0.54,-2.02 -1.08,-2.02 0.41,-1.76 2.69,-1.08 2.57,0.81 1.48,1.62 2.69,1.62 2.57,0.94 z"
        title="Sejong"
        id="KR-50"
    />
</svg>
