<svg
    xmlns:mapsvg="http://mapsvg.com"
    xmlns:dc="http://purl.org/dc/elements/1.1/"
    xmlns:rdf="http://www.w3.org/1999/02/22-rdf-syntax-ns#"
    xmlns:svg="http://www.w3.org/2000/svg"
    xmlns="http://www.w3.org/2000/svg"
    mapsvg:geoViewBox="125.384480 38.612150 130.921968 33.194037"
    width="524.23737"
    height="630.5871"
>

    <path
        d="m 67.004286,506.88884 0.37,1.2 -0.6,-0.79 -1.23,-0.38 -0.68,1.2 -0.45,-0.41 0.24,-1.2 -0.42,0.35 -0.6,-0.28 0.47,1.04 -0.45,0.54 -0.47,-1.11 -0.47,0.22 -0.55,-0.47 -0.42,0.35 -1.02,-0.28 0.45,-0.57 -0.26,-0.54 -0.95,0.22 0.32,-0.85 0.34,-0.25 0.39,0.28 0.66,-0.76 -1.02,-0.31 0.16,-0.38 0.63,0.38 0.39,-0.38 -0.42,-0.38 0.87,-0.32 1.29,1.68 2.55,-0.38 0.79,-0.51 -0.21,1.58 0.71,1.11 -0.41,0.4 z m 27.52,-23.66 -0.74,-0.47 0.05,-0.41 0.84,-0.25 -0.47,-1.14 -0.87,-0.32 -0.76,-1.27 -0.79,-0.13 0.18,-0.54 -0.79,-0.6 -0.08,-0.63 -0.92,0.32 0.63,-1.11 -1.44,0.35 -0.16,0.67 -0.84,-0.22 -1.34,-1.52 0.76,-0.67 -0.73,-1.08 -1,-0.09 0,-0.51 -3.18,-1.24 -1.6,0.03 -0.29,0.48 0.55,0.35 -0.39,1.65 1,0.22 0,0.32 -1.5,2.92 -0.55,-0.03 -0.29,-0.63 -0.08,1.21 -0.63,-0.19 -0.6,0.6 1.1,1.21 -1.89,0.16 -0.37,1.05 0.74,0.83 -1.13,0.54 -0.5,-0.48 -0.03,-0.7 0.47,-0.89 -0.45,-0.22 -1.57,2.19 0.21,0.38 -0.37,0.79 -2.23,0.79 -0.52,0.76 -2.49,1.33 0.21,0.7 0.74,0.16 0,0.86 -0.66,-0.57 -1.13,0.44 -1.08,1.05 0.13,0.63 -0.79,1.43 2.7,4.56 0.89,0 0.39,-0.82 1.05,0.03 0.29,0.79 -1.02,0.44 0.39,0.6 -0.94,1.23 1.65,0 -0.13,-0.73 0.76,-0.22 0.92,1.62 1.31,-0.22 0.95,0.28 0.11,-0.51 2.55,-0.47 -0.66,-1.27 1.23,0.54 0.92,-0.89 0.6,0.67 0.89,-1.2 1.63,0.13 0.5,-0.6 -0.81,-0.32 0.45,-1.2 1.16,0.1 -0.02,0.7 0.37,0 1.58,-0.82 -0.81,-0.98 0.89,-0.38 0.1,0.6 0.71,0.1 -0.37,-1.2 1.16,0.86 -0.24,-1.81 1.39,1.74 -0.6,0.16 0.24,0.57 0.37,0.35 0.87,-0.32 -0.03,-1.68 1.18,-0.89 0.5,-1.39 1.13,-0.89 -0.71,-1.65 0.55,-0.82 0.6,-0.03 0.16,-0.82 -1.21,-0.35 0.03,-0.85 1.5,-0.41 0.58,0.86 0.32,-0.41 -0.52,-0.98 0.14,-0.31 z m -41.68,-26.17 0.21,-0.51 -1.02,-0.7 0.13,-0.35 0.92,0.19 -1.26,-1.91 0.05,-1.46 1.13,0.06 0.21,-0.48 2.89,0.22 0.18,-0.67 0.63,0.19 0.34,-1.34 1.16,-0.16 0.21,-1.46 -0.47,-1.37 -0.34,-0.09 -0.18,0.45 -0.63,-0.22 -0.05,0.48 -0.81,-0.29 -0.45,0.41 0.05,0.67 -0.68,0.29 0.11,0.54 -1.23,-0.25 0.21,0.64 -1.21,0.73 -1.21,0.26 -0.97,-0.16 -0.05,-0.57 -1.02,-0.13 -0.45,0.32 -0.29,-0.32 -0.16,0.96 0.58,0.25 -0.81,0.38 -0.13,-0.54 -0.39,0.76 0.58,0.7 -0.45,0.13 0,1.05 0.39,-0.16 -0.71,1.08 0.03,1.18 0.6,-0.16 -0.13,0.67 0.74,0.16 0.32,0.7 1.34,0.44 0.71,-0.19 1.38,-0.42 z m 77.730004,47.71 0.47,-0.1 0.47,-0.92 -0.63,-0.76 -1.44,0.03 -0.03,-1.01 -1.13,-1.46 0.03,-0.89 -0.68,-0.41 0.08,-2.82 -1.08,-1.2 -0.66,-0.09 -1,-1.2 -1.31,-0.1 -0.42,-0.44 -3.1,1.08 -0.97,0.89 -0.26,0.89 0.58,1.17 -0.37,0.41 0.37,2.03 -0.37,0.63 0.71,0.67 -0.5,0.89 1.97,0.41 0.53,0.92 0.66,0.1 0.45,0.79 -0.34,0.38 1.55,1.42 1.55,-0.6 2.5,1.27 -0.5,-1.77 0.32,-0.31 1.18,1.49 1.23,-0.1 0.76,0.63 0.79,-0.03 -0.47,-0.89 -0.76,-0.38 -0.18,-0.62 z m -70.790004,-45 -0.31,-0.6 -0.87,0.16 -1.47,-1.43 -1.26,-0.32 -0.47,-0.73 -0.05,-1.4 -0.45,-0.25 -0.16,1.81 -1.23,-0.06 0.26,1.4 -0.37,0.6 -0.97,-0.57 0.26,-0.6 -2.1,0.44 -0.21,2.96 0.6,1.65 0.74,-0.29 -0.08,-0.57 0.47,0.06 0.29,0.67 -0.34,0.44 0.84,0.51 0,-0.48 0.74,0.1 0.03,-0.67 0.53,0.03 0.29,0.45 -0.52,0.6 0.13,0.51 0.97,0.32 1.5,-0.67 0.03,-1.08 1.5,-1.02 0.16,-1.05 1.08,0.29 0.13,-1.21 0.31,0 z m 62.910004,59.64 0.55,-0.73 -1.63,-1.58 -1.73,-0.57 -0.66,1.55 -0.89,-0.09 0.79,0.35 -0.58,0.41 0.58,0.41 0.45,-0.47 0.58,1.36 -1.13,0.95 -0.47,1.26 -0.47,-0.1 -0.24,0.51 0.55,0.48 -0.37,0.63 0.66,0.51 0.05,1.14 1.05,-1.01 0.32,0.22 -0.13,1.61 1,0.47 0.89,-1.04 -0.37,-0.66 0.6,-0.57 -0.37,-1.39 0.29,-0.22 0.81,0.6 0.26,-1.07 -0.42,-0.28 -0.89,0.25 -0.05,-1.42 -1.15,-0.38 0.13,-0.85 1.99,-0.28 z m -5.96,-4.58 -0.79,-0.41 0.03,-0.6 -1.36,-0.35 -0.76,0.35 -0.63,-0.54 -0.52,0.73 -0.47,-1.39 -1.42,0.06 0.71,0.47 0.05,0.54 0.47,0.06 0,0.6 -0.89,0.1 -0.26,0.76 0.31,0.22 0.29,-0.54 0.37,0.32 -0.47,0.63 -0.66,0.03 0.55,0.32 -0.6,0.6 0.45,0.35 -0.92,0.41 1.6,0.41 -0.05,1.17 2.57,0.54 -1.34,-1.55 0.32,-0.38 1.68,-0.13 -0.1,0.92 1.63,0.19 0.26,-0.22 -0.24,-0.73 -1,-1.2 1.81,0 0.26,-0.63 -0.58,-0.28 -0.3,-0.83 z m -0.55,6.1 -0.37,-0.54 -2.31,-0.41 -0.66,0.44 0.05,0.57 -0.39,-0.25 -0.1,-0.85 -1.39,0.28 -0.03,-0.73 -1.52,-0.89 -1.6,1.3 -0.58,0.03 -0.03,0.57 -1.08,0.6 0.47,0.85 -0.55,0.73 0.53,0.28 -0.52,0.6 0.84,1.96 0.63,-0.44 0.76,0.51 3.31,-1.61 0.4,-1.04 0.97,-0.03 -0.24,-0.5 0.66,-0.41 -0.18,-0.63 0.79,0.16 0.34,-0.76 1.16,2.02 0.05,-1.67 1.23,1.39 0.71,-0.95 -0.24,-0.92 -1.11,0.34 z m -55.880004,-48.84 -0.45,0.54 0.1,0.73 0.6,0.51 -0.26,1.18 0.97,-0.13 -0.18,-0.86 0.58,0.1 0.16,-0.54 0.6,0.98 0.76,-0.57 0.6,0.54 -0.08,-0.35 0.53,-0.13 -0.18,-0.48 0.55,-0.7 -0.42,-1.11 -0.71,0.64 0.24,-2 -1.44,0.45 -0.31,-0.35 0.21,-0.6 -0.47,0.29 -0.26,-0.6 0.03,-0.92 0.66,-0.35 0.11,-0.86 -1.05,0.25 0.16,-0.79 -0.47,0.35 -0.95,-0.38 -0.45,0.48 0.6,1.43 -0.55,1.3 0.32,0.57 -0.29,0.67 0.82,-0.44 0.6,0.57 -0.26,0.7 -0.42,-0.12 z m 24.11,-31.35 -0.34,-1.02 -0.24,1.34 -0.52,0.48 -2.07,-0.38 -0.74,-0.51 -0.47,1.82 1.23,0.1 1.21,0.83 0.87,0.1 1.58,-1.88 1.34,0.06 0.34,0.41 1.47,-0.13 0.37,0.86 0.45,-0.6 0.84,0.03 0.63,0.73 -0.05,0.54 0.71,-0.29 0.1,0.92 -0.47,0.1 -0.24,0.77 -1,0.22 0.45,0.67 1.76,0.54 0.18,-0.95 0.32,0.41 1.18,-0.64 -0.45,-1.94 0.79,-0.16 -0.29,-1.59 -1.08,0.45 -0.42,-0.77 0.55,-0.19 -0.1,-0.32 -1.94,-0.1 -1.18,0.41 -0.97,-0.83 1.02,-0.48 -1.08,-0.73 0.37,-0.48 0.79,0.29 0.05,-1.24 0.68,0.54 0.37,-0.73 0.58,-0.16 0.58,0.86 0.21,-0.35 -0.03,-0.99 -1.05,-0.35 -0.39,-0.89 -1.23,-0.29 -0.29,0.54 -0.73,-0.06 -0.66,-1.4 -0.66,-0.26 -1.57,1.05 -0.13,0.32 1.31,0.99 0.89,1.66 -1.02,0.64 -0.66,-0.67 -0.52,0.06 -0.21,1.63 0.71,0.64 -0.29,0.57 -0.84,-0.2 z m -14.73,17.06 0.84,-1.34 1.42,-0.13 -0.32,0.73 0.82,0.41 0.13,1.88 0.76,-0.44 1.13,0.57 0.89,-0.7 -0.16,-1.21 0.45,-0.57 -0.63,-2.42 -1.26,-0.8 0.08,-0.86 -1.79,0.67 -1,-0.76 -0.71,-1.46 -1.73,0.54 -1.81,-0.92 0.05,0.89 -0.39,0.32 -0.47,0 0,-0.57 -0.81,0.28 -0.63,-0.25 0.26,0.41 1,0.16 0.45,1.43 -0.71,0.51 -0.39,1.34 0.24,0.29 1.05,-1.08 1,-0.13 0.1,1.02 0.66,-0.29 -0.37,1.88 1.18,-0.16 -0.13,0.41 0.8,0.35 z m 7.79,8.26 -1.52,0.54 -0.18,-0.7 0.5,-0.83 -0.6,-0.73 -0.63,0.13 0,-0.79 -1,-0.06 -0.21,-0.67 -0.6,-0.22 -0.97,0.32 -0.63,1.56 -0.79,-0.57 -0.31,0.95 -1.18,0.1 0.26,1.02 1,-0.64 0.58,0.73 -0.45,1.21 -0.6,0.41 0.45,0.6 -0.37,0.76 0.63,0.26 0.79,-0.64 1.26,0.06 -0.05,-0.67 0.53,-0.28 0.97,0 0.21,0.6 0.5,-0.03 0.63,-1.05 1.52,-0.16 0.37,-0.41 -0.11,-0.8 z m -3.28,-50.49 -0.47,1.88 0.58,-0.8 0.13,0.7 0.97,-0.29 -0.55,0.77 1.89,0.38 -0.03,-0.48 0.45,-0.13 0.84,1.05 1.79,-0.16 0.97,0.61 -0.42,1.66 0.92,0.19 0.87,1.6 0.84,0.35 0.58,-0.22 0.97,-1.91 -1.15,-0.73 -0.39,-2.43 -1.42,-0.99 -0.05,-1.21 0.55,-1.53 -0.52,-0.64 -1.39,0.9 -0.39,-1.05 -0.73,-0.22 -1.23,0.57 0.11,-0.67 -1.1,-0.58 -0.37,0.35 -0.68,-0.13 -0.32,0.7 -0.84,-0.16 -1.13,0.83 -0.08,1.09 0.8,0.7 z m -7.98,25.68 -0.63,0.96 -1.57,0.29 1.68,2.55 1.37,1.31 0.53,1.02 -0.16,1.05 2.21,-0.35 0.5,-1.4 -0.92,-1.65 0.68,-0.54 0.11,-0.6 1.13,0.51 1.6,-1.24 -1.02,-1.08 -0.71,-0.03 -0.03,-0.8 0.55,-0.32 1.29,0.38 0.6,-0.8 -0.39,-0.51 -0.45,0.22 -0.55,-1.53 -0.47,0.77 -0.68,-0.61 -0.71,0.13 -0.81,-0.41 -0.58,0.38 0.55,0.8 -0.55,0.45 0.16,0.54 0.89,0.73 -0.5,0.92 -2.13,-0.64 -0.34,-0.64 -0.65,0.14 z m 1.52,-16.26 0.71,0.51 1.44,-0.03 0.24,-0.48 0.95,-0.13 0.76,0.45 1.84,-0.03 0.71,-1.15 -0.52,-0.19 0.45,-0.54 -0.37,-0.41 -2.84,-0.99 -0.58,0.03 -0.24,0.99 -0.87,-0.06 -0.66,1.53 -0.55,-0.32 -0.47,0.82 z m -10.87,15.33 -0.52,0.38 0.6,0.19 0.45,-0.35 0.58,0.45 0.37,-0.51 0.97,0.8 0.47,-0.6 1.76,0.57 1.05,1.85 0.37,-0.38 -0.55,-1.4 0.76,-0.22 0.21,0.76 1.44,-0.45 -0.52,-0.57 0.18,-0.22 1.97,0.1 -0.6,-1.43 1.92,-0.92 0.05,-0.57 -1.02,-0.13 -0.47,-0.8 1.52,-1.4 -1.42,-0.22 -0.08,-0.41 0.66,-0.29 0.13,-0.51 -1.23,0.29 -0.31,-0.51 0.42,-0.8 -2.1,-0.86 0.39,2.17 -0.58,0.96 -1.02,0.19 -0.42,-1.11 -0.55,0.03 0.31,0.48 -0.42,0.7 -1.1,0.16 -0.71,-0.51 -0.05,0.96 -0.89,1.63 -0.53,0.35 -0.5,-0.22 0.29,0.77 -0.52,0.73 -1,-0.29 -1.13,0.32 -0.03,0.48 1.1,-0.32 0.3,0.68 z m 6.25,-22.23 0.87,-0.38 -0.05,0.9 0.66,0.13 -0.42,-1.37 1.58,-0.26 -0.26,1.15 0.26,0.45 0.81,0.06 0.11,0.38 0.81,-0.13 0.08,0.57 0.55,0.06 -0.05,-0.51 0.47,0 -0.39,-1.05 1.52,0.1 -0.68,-0.7 -0.13,-0.83 0.6,0.32 0.63,-0.54 -0.16,-0.48 -1.34,-0.51 -0.29,-0.77 0.32,-1.5 0.55,-0.38 0.63,0.35 -0.18,-1.47 0.5,-1.63 0.37,-0.54 1.73,-0.19 0.26,-0.64 1.47,-0.29 -1.29,-0.22 -2.78,0.74 -0.58,-0.29 0.24,0.54 -0.34,0.54 -2.81,2.97 -1.34,0.67 -1.86,-0.1 0.18,1.09 -0.87,1.18 1.58,0.93 -0.31,0.86 -1.68,-0.25 0,0.54 0.5,-0.16 0.53,0.66 z m -56.2399997,41.87 -0.84,0.38 -0.31,1.02 -0.69,0 -0.66,-0.73 1.29,-1.05 -2.49,0.13 -0.6,0.44 0.05,1.24 -1.08,1.02 -0.03,1.24 -0.97000002,0.67 0.24,0.73 0.84000002,0.28 -0.05,0.32 -1.19000002,0.28 0.95000002,1.65 1.58,0.57 -0.08,-1.68 0.6,-0.16 0.03,-0.44 1,-0.09 -0.55,-1.59 1.23,0 0.32,-0.29 0.34,-0.19 0.24,-2.06 0.97,-0.51 0.34,0.57 0.55,-0.7 -0.24,-0.76 -0.5,0.06 -0.29,-0.35 z m 138.5900037,58.06 -0.81,0.51 -0.39,-0.16 0.42,-0.35 0.08,-0.85 -0.79,-0.88 0.79,-0.44 -0.08,-0.76 -1.58,0.03 -0.31,-0.57 -0.68,0.06 -0.29,0.57 -0.89,0.22 -0.18,0.82 -1.18,0.31 0.47,0.44 -0.92,1.11 0.47,0.98 -0.79,-0.16 -0.21,0.51 0.34,0.7 0.45,-0.51 0.37,0.35 -1,0.89 0.58,0.19 -0.21,0.51 0.34,0.69 0.32,-1.29 0.87,-0.47 1.18,1.26 -0.08,0.6 1.79,-0.69 0.79,0.6 1.02,-0.91 0.6,-2.53 -0.49,-0.78 z m 80.08,-80.44 0.87,0.61 0.84,-0.03 -0.13,-3.44 -1.71,-1.69 -2.7,-0.06 0.26,-1.72 -0.79,-0.64 -1.44,1.56 -0.13,0.64 -1,0.38 0.05,2.01 5.36,1.21 0.5,0.7 0.16,-1.88 -0.45,-0.29 0,-0.54 0.95,-0.35 0.79,1.54 0.15,2.38 -1.26,-0.32 -0.32,-0.07 z m -0.23,34.13 0.5,0.64 1,-0.16 0.89,0.54 1.55,-0.6 0.16,-0.86 -1.86,-1.24 0.39,-0.41 -0.08,-1.75 0.84,-0.35 -0.18,-2.89 0.79,-0.29 -0.05,-0.44 -1.02,0.13 -0.18,-0.51 0.73,-0.22 -0.58,-0.06 -0.23,-0.63 -0.74,0.32 -0.79,-1.24 0.45,-0.7 -0.16,-1.18 -0.45,-0.16 -0.84,0.51 -0.66,-1.08 0.58,-0.76 0.84,0.67 0.45,-0.79 0.18,0.45 -0.47,0.64 0.81,-0.13 0.11,0.45 0.39,0 -0.24,-2 -4.04,-1.97 -0.47,0.03 -0.26,0.6 0.47,0.16 0.47,1.5 1.13,0.16 -0.42,1.78 0.24,0.76 1.44,0.7 -1.79,0.32 -0.52,0.73 0.03,0.73 -1.76,1.46 -0.52,0.03 -0.58,1.43 0.66,0.95 -1.34,1.52 0.89,0.95 1.66,0.22 -0.03,0.76 1.18,1.4 1.43,-0.12 z m -6.07,-14.9 -1.31,-1.11 -0.79,-0.16 0.34,-0.67 -0.97,-0.95 -0.79,-0.13 0.05,-0.73 -0.6,0.16 0.18,1.02 -0.79,0.38 -1.05,2.74 -0.42,-0.06 0.71,1.44 -1.55,-0.55 0,-0.83 -0.34,0.22 -0.08,1.08 -0.26,-0.26 -0.47,0.26 0.05,0.51 1.26,0.76 -0.42,1.02 0.71,0.48 0.68,-0.13 -0.71,0.54 -0.84,-0.19 0,0.32 0.71,0.35 0.6,1.88 -0.66,0.51 0.63,0.67 0.32,-0.35 0.37,0.19 -0.21,0.79 -1,0.67 1.02,0.03 0.42,1.14 -0.81,0.16 -0.24,-0.76 -0.95,0.32 0.18,-0.35 -1.15,-1.27 -2.42,-0.98 -1.21,0.38 0.71,2.19 -0.26,-0.03 -1.44,-2.73 -0.58,-0.57 -0.55,0.06 -0.21,-0.86 0.34,-0.54 0.63,-0.03 0.21,-0.6 -1.1,-0.35 0.05,-1.59 0.63,-0.06 -0.29,-0.29 0.53,-0.41 1.34,0.19 0.16,-0.32 -0.5,-0.29 -0.79,0.22 0,-0.83 -1.02,0.96 0.37,-1.53 -0.76,0.38 -0.05,-0.29 0.24,-0.73 1.23,-0.54 -0.24,-0.92 0.63,0.48 1.05,-0.57 -0.08,-0.7 0.55,-0.03 -0.13,-0.7 1.92,0.06 -1.1,-0.7 -0.71,0.1 0.63,-0.83 -0.68,-1.34 -0.34,0.89 -0.66,0.19 -0.03,-1.59 -1.29,-0.38 1.21,-0.25 0.16,-0.48 -0.39,0.03 -0.21,-0.92 -0.76,-0.54 -0.13,-1.3 -1.1,-0.35 -0.21,0.54 -0.6,-0.03 -1.21,-0.38 0.18,-1.62 1.16,-0.99 0.45,-1.18 -0.97,0.13 -0.68,-0.38 -0.79,-4.01 -1.24,0.61 -1.31,0.1 0.19,3.06 -0.6,0.77 -1.78,-0.54 -0.53,0.48 -1,0.1 -0.16,0.48 -0.66,-0.13 -0.05,-1.4 -0.42,0.03 -0.42,1.37 -3.36,1.34 -1.29,-1.34 -2.34,-0.1 -0.05,0.35 0.76,0.41 1.52,0.42 0.92,1.46 0.53,-0.29 1.65,0.51 0.92,-0.41 0.26,0.22 -1.5,1.31 -1.6,0.7 -0.71,1.08 -0.08,0.92 -1.94,-0.1 0.32,0.32 2.23,0.13 0.89,0.8 -0.39,1.24 -1.65,0.8 -0.73,1.08 1.55,3.4 0.79,0.64 0.39,-0.16 0.52,0.38 0,0.54 1.58,0.89 0.21,0.95 0.6,0.38 -0.45,0.7 0.84,-0.44 1,0.48 -0.24,1.37 1.21,-0.83 -0.05,0.83 0.95,0.1 -0.47,-1.08 1.47,-0.13 -0.03,0.86 -0.42,0.06 0.05,1.08 1.55,0.51 -0.03,0.89 -1.18,-0.67 -0.34,0.83 -0.55,-0.13 -0.37,-0.83 -0.47,0.44 0.84,0.92 2.78,0.6 -0.26,0.7 0.42,0.67 -0.18,0.51 0.87,1.14 -0.03,1.24 -1.71,1.43 -0.05,0.98 -0.55,-0.54 -0.47,-0.13 -0.37,0.57 -1.05,-0.7 0,-1.21 -0.39,-0.06 -0.05,0.89 -1.18,0.79 -1,-0.57 0,-0.73 -1.47,0.64 -0.37,-0.22 0.13,-0.48 -0.68,-0.22 -1.42,0.54 -2.55,0.03 0.05,0.67 2.36,-0.19 0.24,0.95 1.31,-0.79 -0.39,1.37 -0.63,0.57 -1.58,-0.19 -0.18,1.08 1.97,-0.57 1.08,0.45 1.18,-0.06 -0.63,0.57 1.37,-0.32 0.63,0.57 -0.6,0.76 0.42,0.95 -0.63,-0.28 -0.23,0.76 -0.39,-0.03 0.74,1.21 -0.29,0.28 0.18,0.7 -1.26,-0.82 -0.81,-0.06 -0.47,0.64 0.37,0.13 -0.24,0.92 -1.05,0 -0.37,-0.6 -1.05,0.73 1.13,1.43 -0.24,0.92 -0.29,-0.38 -0.47,0.35 -0.13,-0.44 -0.45,0.86 -0.39,-0.06 -0.21,-0.73 -1.13,-0.57 -0.47,1.62 -0.31,-0.06 0.18,-0.63 -0.5,0.03 -1.08,0.92 -0.58,-0.09 1.13,1.01 -0.37,0.44 -0.84,-0.73 -0.47,0.48 1.23,0.76 0,0.38 0.45,-0.19 0.26,1.01 -1.13,0.82 -1,-0.06 -0.68,-0.92 -0.52,0.13 0.03,-0.63 1.1,0.03 -0.71,-0.98 -0.39,0.44 -0.1,-0.67 -0.68,0.19 0.34,-0.86 -0.81,-0.03 -0.58,-0.76 -1.65,-0.44 0.45,-1.3 0.97,-0.63 -2.76,-2.63 -0.97,0.03 -0.03,0.73 -1.18,-0.38 0.21,-0.79 -1.15,-0.98 -0.66,-0.06 -0.58,-1.05 0.08,2.6 -0.89,-0.48 -0.39,-0.86 -1.13,0.06 -0.11,-0.44 -0.79,0.92 -0.05,0.83 -0.5,-0.67 -2.94,0.35 -1.47,-0.79 0.08,-1.24 -0.94,-0.63 0.47,-1.94 1.13,-1.11 0.58,0.03 -0.18,-0.63 1.1,-0.7 -0.24,-0.67 0.58,-1.21 0.21,0.79 0.74,0.28 1.23,-0.38 -0.37,-0.92 0.42,-0.25 0,-2.41 2.55,-2.54 2.68,-0.67 0.42,-2.48 1.1,-1.08 -0.71,-0.86 0.32,-0.8 1.16,-0.54 1.08,-1.43 0.68,0.54 0.42,-0.86 0.55,0.06 -0.08,2.26 0.5,0.03 0.08,0.48 -0.73,2.42 0.76,0.8 2.68,0.25 0.66,-1.14 -0.37,-0.83 0.94,-1.05 0.47,-1.91 1.13,-0.35 -0.1,-0.51 -1.05,-0.03 -0.63,-4.17 -1.26,-0.13 -0.79,0.38 -1.13,2.19 -0.45,-0.6 -1.52,-0.64 -0.76,1.15 -0.79,-0.76 -0.94,-2.55 -1.55,0.35 -1.73,2.16 -0.34,2.26 -0.79,1.37 -0.71,0.29 -0.68,1.18 -3.86,0.13 -0.68,-0.99 -0.63,-0.22 -1.37,1.24 -0.45,1.49 -1.13,0.92 -2.94,1.08 -0.42,0.48 0.16,0.7 -0.63,0.28 -0.89,1.49 -0.87,-0.06 -1.89,1.33 -3.33,-0.38 -2,0.32 0.84,0.54 0.66,-0.44 1.55,0.16 -0.03,0.95 1.39,0.76 -0.03,0.35 -1,0.1 0.13,0.76 -0.58,0.44 -0.21,1.37 -1.08,0.95 0.95,0.7 1.63,-0.32 -0.13,1.49 -0.26,0.29 -0.5,-0.89 -0.84,0.13 0.03,2.48 -1.55,-0.38 -1.15,1.3 0.24,0.73 1.42,1.3 -0.03,0.51 -0.92,0 -0.37,1.56 1.18,0.82 0.32,1.27 -0.73,0.28 -0.37,-0.32 -0.95,0.86 -1.39,-1.59 -0.58,0.83 0.37,1.59 0.6,0.73 -0.84,1.05 -1.05,-0.03 -0.6,-0.76 -4.73,-0.19 1.52,2.47 -0.16,1.46 -1.21,-1.81 -1.55,-0.51 -1.05,-1.08 -0.63,-0.19 -0.81,0.6 -1.1,-0.06 -1.29,-0.92 0.29,-1.4 -2.05,-0.06 0.08,-0.86 0.95,-0.38 -0.73,-3.14 0.26,-0.38 -0.47,-0.32 0.47,-1.59 -0.1,-1.59 0.68,-0.76 -0.53,0 -0.13,-0.51 -0.16,-0.89 0.58,-0.82 -0.87,-1.02 0.24,-1.17 -1.02,-0.92 0.37,-0.38 -0.37,-2.41 0.5,-1.59 0.66,-0.6 -0.31,-0.19 -0.68,1.97 -0.87,0.76 -0.6,9.43 0.55,0.64 -0.97,0.25 -0.08,0.41 0.26,2.22 0.42,0.41 -0.66,0.32 0.11,0.54 -0.68,-0.1 -1.31,0.79 0.79,1.55 -2.21,3.3 -0.55,-0.38 -0.84,0.79 -0.97,-0.13 -1.71,1.62 -0.63,-0.19 0.37,0.8 -0.45,0.15 -0.81,-0.82 -0.6,0.7 -0.76,-0.22 -0.52,1.49 -0.97,-0.25 -0.55,1.05 -0.55,-0.57 -0.6,0.79 0.5,0.57 -0.94,1.17 0.29,0.76 0.55,-0.03 -0.05,2.34 -1.71,1.08 0.6,0.51 -0.79,1.01 0.29,0.76 -0.21,1.11 0.45,0.51 -0.81,0.32 -1,-0.89 -2.47,-0.28 -1.5,2.21 -1.44,0.25 -0.34,1.01 -0.87,-0.31 0.26,-2.21 -0.66,-0.54 1.39,-1.68 -0.6,-1.14 0,-1.93 -1.44,-0.63 -0.55,0.73 -0.84,0 -1.13,1.14 -0.66,0.16 0,-0.63 -0.6,-0.44 -0.08,-0.54 0.39,-0.13 0.92,0.85 0.21,-0.35 -0.42,-0.66 0.97,0.09 -0.84,-0.66 0.37,-0.7 -0.74,-0.13 -0.05,-0.73 2.39,-0.41 -1.13,-1.58 0.29,-0.47 -0.24,-0.38 1.52,0.48 0.16,0.44 1.08,-1.65 -0.73,-1.27 0.5,-0.85 -0.47,-0.7 -1.13,0.92 -0.47,-0.38 -0.81,0.1 0,0.98 -0.71,-0.22 -0.66,-1.3 -1.26,-0.92 -0.1,-0.38 0.95,-0.47 0.6,0.76 0.53,-0.29 -0.76,-0.73 -0.05,-0.6 0.63,-0.35 -0.42,-0.7 -0.63,0.25 -0.74,-0.95 0.03,-0.57 0.97,-0.16 -0.92,-2.06 1.34,-0.82 -0.79,-1.36 -1.92,-0.16 0.13,-0.57 1.02,-0.19 1.05,-0.92 -0.31,-0.82 -0.97,0.19 -0.08,0.51 -1,-0.06 -0.03,-1.59 -2.280004,-0.79 0.21,1.21 -1.5,0.25 0.03,0.95 -1.44,0.7 -0.79,-0.79 0.92,-1.11 0,-1.24 -2.21,-0.09 -2.86,-1.43 -2,0.7 -0.94,-1.14 0.87,-1.02 -3.18,-1.18 0.53,-0.98 -0.45,-0.6 0.32,-1.02 -0.29,-0.35 1.23,-1.02 -0.42,-0.57 -0.45,0.64 -1.18,-0.29 -1.18,-1.14 -0.39,-2.8 0.39,-0.64 -0.45,-0.76 0.76,-0.7 -0.45,-1.08 0.29,-1.37 0.58,0.45 0.68,-1.11 0,-1.75 1.05,-3.4 1.31,-0.54 1.05,0.99 -0.32,0.73 1.26,-0.13 -0.29,0.76 0.92,0.51 0.37,1.97 0.84,0.25 0.92,1.15 0.03,0.64 -1.58,0.67 -0.24,1.94 0.4,0.83 -0.71,0.99 0.21,0.57 2.34,0.86 -0.1,2.89 1.31,0.64 0.26,1.84 0.42,-1.3 0.6,-0.19 2.02,1.37 0.71,-0.19 -0.13,0.67 4.150004,2.22 -0.18,-0.89 2.89,-1.46 0.45,-1.14 -0.08,-0.54 -0.79,0 -0.66,0.64 -0.55,-0.29 -0.81,0.64 -0.45,-2.89 -0.52,0 -0.66,1.18 -0.810004,-2.45 -1.05,0.25 0.5,-1.84 -0.74,-0.06 0.05,-0.83 -0.87,0.03 -0.31,1.24 -0.6,-0.19 -0.79,1.11 -1.08,-0.95 1.65,-1.97 -0.18,-1.87 -0.52,-0.54 0.6,0.1 0.53,0.83 0.47,-0.41 -0.18,-0.76 -0.58,-0.22 0.03,-0.79 -1.05,-0.19 0.05,-0.54 0.66,0.32 0.34,-0.73 1.55,2.13 -0.1,0.89 0.37,0.48 0.95,-1.08 0.58,-0.06 0.13,-0.76 0.500004,0.6 0.55,-0.95 1.13,0.67 -0.16,0.64 -1.31,0.89 -1.100004,2.07 1.130004,1.27 0.97,-0.38 -0.03,0.89 0.89,0.13 0.73,1.08 3.94,0.51 1.58,1.37 1,-1.33 -1.31,-0.38 -0.24,-1.24 0.37,-0.16 2.21,0.22 0.31,0.89 3.26,1.4 3.1,0.29 0.45,-0.44 -0.89,-0.76 -1.92,-0.09 -1.42,-1.4 -1.6,-0.83 -0.37,-1.37 0.6,-1.3 -1.26,-0.38 -1.13,0.25 -1.18,-2.92 -2.68,-3.18 -0.95,-0.38 -1.52,0.13 -0.73,0.19 -0.71,0.92 -0.5,-0.25 -0.24,-1.4 -1.260004,0.03 -0.45,0.51 -0.24,-0.67 -0.89,0.25 -0.45,-0.67 -0.66,0.38 -0.05,0.6 -1.1,-0.13 0.18,0.64 -0.79,0.35 -2.34,-0.86 -0.05,-0.48 1.68,-1.08 -0.26,-0.76 0.55,-0.48 -0.5,-0.32 1.16,-0.44 -0.08,-1.34 -1.99,0.13 -0.71,-2.17 0.87,-1.04 0,-0.8 0.47,-0.67 0.6,0.19 0.18,-0.92 0.34,-0.45 0.39,0.13 0.13,-0.7 0.79,-0.6 1.02,-0.1 -0.71,-0.54 -0.13,-1.98 -0.76,-0.38 0.63,-1.31 -0.73,-0.25 -0.55,-0.1 0.45,-1.24 -0.16,-0.73 0.42,0.26 0.42,-0.25 0.45,-1.27 -1.29,-1.21 -0.18,-0.67 0.66,-0.73 -0.79,-1.21 0.53,-2.23 -1.15,-0.77 -0.1,-1.91 -0.81,-1.34 -0.45,0.57 0.13,2.2 -0.87,0.7 0.08,0.77 0.79,-0.13 0.63,0.73 -0.89,1.44 0.76,0.51 -0.71,0.86 0.39,0.93 -0.24,0.41 -1.52,-0.13 -0.1,0.54 -0.63,0.22 -1.36,-0.16 -0.24,-1.62 -0.94,-0.22 -0.5,0.7 -0.47,-0.22 -0.18,-0.73 0.45,0.19 1.05,-1.24 -1.08,-0.48 -0.24,-0.89 -1.13,-1.15 0.21,-1.18 0.5,-0.1 0.21,-0.89 0.71,-0.38 -0.29,1.4 0.68,0.03 0.26,-0.7 0.81,1.69 1.89,-0.96 0.34,-0.89 0.63,-0.16 -0.03,-0.99 -1.86,-0.41 4.91,-3.16 -0.08,-1.5 -0.89,-1.12 -0.97,0.03 -1.65,0.8 -0.42,-1.02 0.42,-0.45 -0.26,-0.57 -1.65,-0.41 0.81,-0.26 0.45,-0.7 -1.15,-2.17 -1.34,-0.03 -0.13,0.73 -1.37,-0.96 1.21,2.24 -1.37,1.05 1.05,0.29 0.21,0.61 -1.29,1.21 -0.71,-1.72 -0.76,-0.35 -0.79,0.9 -1.29,0.1 0.08,-1.05 -0.68,-1.95 -1.02,-0.67 0.42,-1.28 1.65,-0.13 -2.21,-2.43 0.82,-1.92 0.39,0.48 0.37,-0.17 -0.47,-0.76 0.21,-0.54 1.47,-0.9 0.71,1.92 1,-0.22 -0.31,-0.51 0.37,-0.1 1.37,0.42 0.08,1.25 1.29,-0.06 0.92,-1.63 -0.68,-0.45 0.08,-0.32 0.37,-0.38 0.6,0.38 1.08,-1.28 0.05,2.56 -0.79,1.63 0.29,0.19 -0.18,0.51 -0.76,0.22 -0.18,0.9 0.53,0.38 0.05,0.83 -0.52,0.35 1.21,0.22 0.89,-1.02 -0.08,1.63 -0.68,0.45 0.05,0.57 0.37,0.26 0.24,-0.45 0.63,0.61 0.74,-0.57 0.21,1.95 0.42,-0.1 0.76,-2.11 1.05,-0.54 -0.66,2.27 0.47,0.16 0.66,-1.34 1,1.53 0.03,0.42 -1.58,1.85 0.97,-0.03 0.1,1.85 2.23,-0.06 -0.6,-0.99 0.03,-0.77 0.42,-0.61 1.680004,-0.8 1.44,-2.3 -2.070004,-0.96 2.100004,-0.67 0.66,-1.18 -1.71,-0.64 -2.360004,-0.1 -1.63,-3.16 -1.21,-0.51 -0.81,-1.41 0.03,-0.73 -0.92,-0.13 -0.6,-1.06 -0.66,-0.06 0.29,-1.34 -1,-0.48 1.63,-0.54 -0.18,-1.12 0.58,-0.29 0.29,-1.15 -1.79,0.9 -0.03,-0.42 -1,-0.22 -1.29,0.61 -0.39,-0.61 -1.18,-0.19 0.18,-0.77 -0.45,-0.96 -0.58,-0.54 -0.79,-0.06 0,-0.51 1.1,-2.08 0.66,1.54 0.66,0.55 0.03,0.77 0.63,-1.15 0.74,-0.22 -0.55,-0.99 1.6,-2.18 -0.29,-0.7 -1.29,0.45 -0.47,-0.42 0.74,-1.31 3.13,0.03 0.63,-2.37 0.11,-2.92 1.76,-4.45 1.47,0.58 0.68,-0.19 0.95,0.99 1.600004,0.19 -0.24,-0.67 -1.050004,0.19 -0.31,-0.74 -1.86,-1.15 -0.76,-2.4 0.74,-1.8 -0.29,-0.55 1.47,-1.41 2.230004,0.16 0.32,-0.58 1.94,0.18 0,0 1.87,0.62 0,0 1.87,1.56 0.78,2.66 0.16,2.96 1.87,2.19 1.25,4.06 1.71,0 0.38,1.7 0,0 4.35,-0.23 1.45,-1.54 0.99,-0.35 1.11,0.24 0,0 0.97,0.43 2.07,-0.71 0,0 1.53,-1.5 3.14,-0.96 0,0 2.41,-1.22 0.77,-2.01 -0.14,-0.96 0,0 -0.26,-0.77 0,0 0.15,-0.68 1.45,-0.95 0,0 0.59,-0.68 -0.15,-3.1 0,0 0.18,-1.18 0.61,-0.81 2.27,-0.98 0,0 1.53,0.35 0,0 1.08,0.22 1.57,-1.87 3.02,0.61 2.95,1.86 1.1,1.13 2.52,4.77 0,0 1.04,0.9 0,0 1.97,0.57 1.02,-0.69 0,0 0.14,-1.02 0,0 0.53,-2.08 1,-0.64 0.98,-1.79 0.71,-0.32 1.81,0.4 1.35,1.04 0.61,1.91 -0.16,2.51 0,0 -1.15,1.38 0.09,0.94 0.49,0.68 1.59,-0.01 0,0 1.01,2.88 -0.42,3.61 2.59,1.98 0,0 2.1,0.54 0,0 1.61,-0.15 1.42,-0.94 0,0 0.96,-0.9 0,0 1.3,-0.84 3.16,1.36 0,0 1.93,-1.12 1.44,1.37 0,0 1.13,0.66 6.15,-0.02 0,0 2.38,-0.7 3.19,0.36 0,0 1.13,-0.02 0.62,-0.44 2.95,-3.79 1.76,-0.98 0,0 2,-0.11 0,0 3.51,1.16 1.04,0.92 0,0 3.31,1.82 3.07,2.65 0,0 -0.78,0.7 -0.01,1.56 2.66,2.99 0.91,9.22 1.3,1.69 2.22,1.13 3.04,3.64 0.19,2.9 0,0 1.09,1.05 0,0 0.77,1.24 1.62,0.69 1.18,1.87 0,0 1.75,1.33 0,0 1.58,4.11 -0.04,2.93 0.7,0.32 0,0.87 -1.84,0.29 -0.95,-0.38 -1.36,-2.97 -0.58,-0.03 -0.63,1.15 -1.76,0.54 -0.05,-2.9 -1.42,-2.04 0.08,1.63 0.68,0.54 0.37,3.03 -1.55,1.18 -0.24,0.93 -0.63,-0.19 -0.68,0.89 -0.71,0.06 -0.18,0.48 0.47,0.96 -1.63,1.12 -1.57,0.41 0.21,0.48 -1.15,0.89 -0.95,-1.21 0.45,-0.57 -2.07,0.22 -0.47,-1.31 -1.05,-0.96 0.16,-2.45 -0.71,-0.67 0.29,1.21 -0.42,1.79 -1.15,0.19 -0.31,-0.29 -0.5,0.64 1.16,0.29 1.29,1.59 -0.5,0.8 0.61,1.02 -0.5,0.19 -0.5,-1.02 -0.73,0.7 -0.6,-0.54 -0.58,0.64 1.1,0.13 0.34,0.41 0.08,1.37 1.39,1.37 -0.26,0.42 0.37,0.6 0.37,0.22 0.42,-0.41 0.68,1.02 1.42,-0.16 -0.08,0.77 -0.81,0 -0.05,0.54 0.24,0.7 0.92,0.73 0.03,-1.11 0.84,0 1.47,0.8 1.21,-1.31 1.34,-0.48 0.92,-1.53 -0.55,-0.45 0.05,-0.76 0.6,0.92 0.1,-0.38 1.5,0.1 1.58,-0.67 -0.95,0.86 1.76,0.7 -0.13,-0.76 2.31,-0.83 1.34,1.34 -0.84,0.19 0.31,0.86 -0.71,2.32 0.66,0.19 -0.68,0.35 0.13,2.17 -0.89,-0.06 -0.29,1.53 -1.05,1.08 0.76,1.4 -0.34,1.18 0.53,0.38 -0.58,0.41 0.79,0.57 -0.18,0.6 -0.42,0.29 -1.58,-0.29 -0.26,1.11 -2.52,0.96 -0.66,-0.03 -0.12,-0.79 z m -64.24,-52.04 -2.61,-0.26 -1.02,-4.54 -1.94,-2.34 -1.83,-0.87 -2.44,-0.09 -2.44,0.96 -2,1.05 -2,2.09 -1.48,0.09 -2.09,-0.7 -1.48,-1.39 -0.61,-2.18 -2.18,-0.09 -2.09,5.31 -2.35,-0.09 -1.74,2.09 -1.13,4.79 0.44,4.09 7.23,1.04 1.83,2.27 1.92,3.83 3.75,0 3.4,-2 3.83,0 1.48,-1.04 3.14,0.61 3.4,-2.35 1.39,-1.83 0.78,-1.65 0.09,-2.61 0.87,-1.83 0,-1.39 -2.12,-0.97 z m 48.85,83.47 -1.6,-0.6 0.08,-0.41 -1.5,-1.87 -0.05,1.14 -0.42,0.19 -0.26,-0.6 -0.45,1.01 -0.92,-0.03 0.66,-0.82 -1.68,0.16 -0.52,-0.79 -0.92,-0.57 -0.31,0.19 0,1.93 0.39,0.63 -0.81,0.48 0.16,0.28 1.08,-0.76 0.53,0.25 0.45,-0.28 1,0.6 -0.21,0.63 -1.47,-0.6 -0.39,0.38 1.21,1.27 0.89,-0.51 0.21,0.51 0.58,0 0.21,0.82 -0.76,0.92 0.05,0.48 0.45,0.22 2.39,-1.2 0.32,-0.51 1,0.48 0.76,-0.95 -0.24,-0.7 0.09,-1.37 z m 24.69,-5.55 -0.55,0.03 0.03,-0.66 -2.47,-0.86 1.39,-0.06 0,-0.44 -0.13,-0.63 -1.71,-1.62 0.18,-0.57 -0.73,-1.59 -1.71,0.03 -2.55,1.75 -0.68,-0.32 -0.73,0.19 0.39,0.73 1.1,0.35 0.68,0.7 1.26,-0.41 -0.74,1.17 0.18,0.38 1.31,0.32 -0.74,0.54 0.13,0.35 0.66,0.22 1.18,-0.41 -0.03,0.64 1.65,0.28 -0.21,0.48 -0.66,0.1 0.81,0.38 1.89,0.13 0.13,-0.51 0.67,-0.69 z m -5.23,-45.27 -1.5,0.1 -0.94,-0.83 -1.76,0.67 -0.68,1.18 0.95,0.73 -0.47,0.45 1.79,0.1 0.47,0.48 0.92,-1.91 1.58,-0.38 -0.36,-0.59 z m -93.9,58.74 0.6,-0.44 2.15,0.13 -0.71,0.79 -0.6,1.81 1.39,0.82 -0.31,-0.51 0.47,-0.63 -0.13,-0.76 1.08,-1.46 1.02,-0.44 1.52,0.35 0.42,-0.54 -0.37,-0.44 0.5,-0.98 1.81,0.51 0.5,0.73 0.45,-0.41 1.1,0.32 0.08,-0.82 -0.71,0 0.24,-0.41 -0.39,-0.95 -0.81,0.13 0.47,-0.6 -0.26,-0.63 -1.1,0.82 -1.42,-1.01 1.79,-0.1 0.29,-0.98 -0.58,-0.57 -0.55,0.28 -0.08,-1.39 -3.04,1.39 -1.21,-0.16 -2.23,2.57 0.34,1.36 -0.79,0.38 -0.89,1.3 -0.04,0.54 z m 67.25,-11.34 -0.1,-0.57 0.81,-0.35 1.44,0.32 0.39,-0.7 0.13,0.7 0.45,0 1.13,-0.82 -1.39,-1.97 -2.89,-0.22 -0.24,-0.57 0.39,-0.22 1.21,0.38 -0.5,-1.14 -1.08,-0.19 0.05,-0.44 1.39,-0.09 0.45,-0.7 -0.47,-0.92 -1.52,-0.16 -0.45,0.29 -1.79,2.6 0.55,0.54 0.84,-0.16 0.66,0.67 -0.42,0.54 0.66,0.06 0,0.38 -1.68,1.05 0.81,0.76 0.13,0.79 1.04,0.14 z m 32.82,3.36 -0.6,-0.41 0.32,-1.01 -1.08,0.57 0.29,0.89 -1.15,2.22 1.5,-0.25 0.03,0.32 -1.13,0.25 -0.37,1.08 0.26,0.54 0.87,-0.48 0.11,0.82 0.71,0.03 -0.29,-0.63 0.5,-0.16 -0.18,-1.33 0.95,-2.91 -0.74,0.46 z m -76.57,12.54 -0.58,0.35 -0.79,-0.57 -1.42,0.22 -1.16,1.36 0.26,2.12 0.55,-0.38 0.26,0.95 0.55,0.32 0.39,-0.6 2.34,-0.89 0.21,-0.89 1.08,-0.22 -0.13,-0.92 -0.6,0.06 -0.96,-0.91 z m -13.57,3.39 1.1,-0.51 -0.39,-0.79 0.34,-0.16 0.79,0.95 -0.26,0.51 1.08,-0.03 0.32,-1.58 -0.55,-0.32 0,-0.44 0.66,-0.35 0.84,0.19 0.1,-1.52 -1.68,0.92 -0.71,-1.45 -1.44,0.41 -0.13,-0.66 -0.68,0.85 -0.55,-0.5 0.08,-0.41 -1.02,-0.7 -1.37,1.3 0.13,1.04 -1.23,0.51 -0.45,0.03 -1.15,-1.46 -1.39,1.27 -1.18,-0.41 -1,0.28 0.45,0.47 2.28,0.51 1.21,1.39 1.44,-1.39 1.87,0.13 0.5,0.44 0.13,0.89 0.42,0.1 -0.31,0.82 0.47,0.89 0.84,-0.25 0.44,-0.97 z m 21.48,-4.94 0.32,-0.57 -0.92,0 0.03,-0.48 -1,0.13 -0.6,0.85 -1.31,0.29 -0.24,-0.76 0.37,-0.16 -0.39,-0.51 0.32,-0.54 -0.55,-0.06 -1,-1.39 -0.21,0.89 -1.15,-0.51 -0.47,0.51 0.63,0.63 -0.18,0.32 -0.37,-0.47 -0.34,0.22 0.42,0.35 -0.42,0.79 -2.13,-0.32 2.13,1.24 0.71,-0.73 1.34,0.86 0.34,0.79 -1.42,0.32 0.81,0.16 0.34,0.51 0.45,0.03 0.37,-0.95 1.23,-0.03 0.13,0.73 -1.57,1.11 0.42,1.84 0.95,-1.87 0.5,0.16 0.21,-1.07 2.02,-0.51 -1.71,-0.28 0.55,-0.89 0.58,0.44 1.31,0.13 0.18,0.6 0.76,0.25 0.47,-0.28 -0.66,-0.63 -1.25,-1.14 z m -14.18,-4.34 -0.97,-0.47 -0.84,0.41 -0.6,-1.33 -0.66,0.6 -0.47,-0.7 0.13,0.82 -0.29,0.1 -1,-1.27 -0.05,0.54 -0.71,0.25 -0.37,-0.32 0.32,-0.57 -0.87,-0.41 -0.31,0.63 0.76,0.63 0.18,0.73 -0.79,2.38 0.68,0.57 1.34,-0.6 0.32,1.62 0.97,0.1 0.81,0.6 0.21,-0.66 0.79,0.38 0.63,-0.51 0.39,-1.17 0.89,0.51 0.92,-0.16 0.21,-0.79 -0.87,-1.17 0.29,-1.2 0.74,-0.92 -0.55,-1.11 -1.23,2.49 z m 30.8,15.89 -1.44,0.32 -0.03,1.17 -0.92,0.1 -0.71,2.78 0.37,-0.28 0.92,0.03 0.18,-0.41 0.37,0.47 1.31,0.38 -0.05,-0.89 -0.76,-0.32 1.1,-0.28 -0.29,-1.11 -0.05,-1.96 z m -2.21,-25.62 -0.29,-1.11 -1.55,-1.11 -1.39,0.86 -0.39,-0.03 -0.05,-0.48 -1.57,0.22 -1.58,1.27 -1.36,-0.13 -0.55,0.89 -0.58,-0.03 0.03,-0.7 -0.79,0.09 -0.42,-1.43 -0.47,0.44 -0.31,-0.38 -0.16,1.62 -0.68,0.13 -0.42,0.73 -0.55,-0.6 -0.34,0.41 1.26,1.74 -0.66,0.51 0.26,0.44 -0.26,0.44 0.87,0.1 0.03,-0.6 0.74,-0.13 -0.08,1.08 0.81,0.22 0.05,0.7 1.13,0.22 0.52,0.98 0.05,-0.82 0.53,-0.41 1.47,0.28 -0.16,-0.54 0.37,-0.22 2,0.57 2.05,0.06 0.84,-0.82 0.45,-2.12 1.15,-2.34 z m -17.98,1.78 -0.97,0.54 -1.1,0.03 0.21,0.51 0.89,0.16 0.34,3.2 0.81,0.79 0.6,-0.32 -0.26,-1.27 0.47,-0.22 0.58,0.48 -0.24,0.82 0.37,1.97 1.02,-1.68 -0.63,-0.51 0.81,-0.25 -0.03,-0.7 -0.92,-2.54 -0.97,-0.82 0.18,0.44 -0.58,0.32 -0.58,-0.95 z"
        title="South Jeolla"
        id="KR-46" 
    />
</svg>
