<svg
    xmlns:mapsvg="http://mapsvg.com"
    xmlns:dc="http://purl.org/dc/elements/1.1/"
    xmlns:rdf="http://www.w3.org/1999/02/22-rdf-syntax-ns#"
    xmlns:svg="http://www.w3.org/2000/svg"
    xmlns="http://www.w3.org/2000/svg"
    mapsvg:geoViewBox="125.384480 38.612150 130.921968 33.194037"
    width="524.23737"
    height="630.5871"
>

    <path
        d="m 240.12429,325.42884 1.14,0.9 1.56,-0.01 0,0 0.71,0.37 0,0 0.31,2.61 0.95,0.56 0,0 2.14,0.33 0,0 1.78,0.22 0.58,1.13 1.15,0.63 0,0 4.44,0.78 0,0 2.55,-0.26 0,0 1.49,0.75 0,0 1.54,0.75 0.49,0.74 0.78,2.88 0,0 0.66,0.5 0,0 2.07,0.99 0.66,1.15 -0.23,0.61 2.52,1.49 0.94,1.79 -0.24,2.21 -1.82,3.97 0,0 -0.27,1.66 0.89,1.64 0,0 3.8,1.49 2.25,-0.3 0,0 1.19,-0.31 0,0 2.96,-1.09 2.2,1.09 2.29,0.27 0,0 2.24,2.18 0,0 1.66,1.24 2.46,-0.05 3.49,-2.5 0,0 1.52,-0.38 0,0 2.42,0.89 1.08,-0.59 0.81,-3.59 0.78,-1 0.3,-0.22 0.98,0.01 0,0 0.69,1.28 -0.47,3.05 0,0 0.79,2.37 0.9,1.29 2.12,1.69 0,0 0.94,1.08 1.39,0.7 0,0 5.88,-1.1 0,0 3.44,0.77 4,1.97 0,0 1.92,0.57 1.57,-0.56 3.95,-3.27 1.01,0.3 0,0 1.14,-0.44 1.81,-2.29 0,0 2.02,-1.42 0,0 2.1,0.04 0,0 1.34,0.1 1.6,0.77 0,0 1.29,0.71 0,0 2.42,0.87 0,0 0.96,-0.35 0,0 0.77,-0.79 0,0 1.47,2.43 0,1.47 -1.2,1.05 0,0 -2.23,1.89 0.34,4.83 2.23,1.05 2.75,0 0,0 2.4,0.21 3.26,3.35 0,0 3.43,3.98 2.23,1.89 0,0 3.09,0.21 0,0 1.27,1.55 0,0 -2.95,2.71 -0.57,1.86 -4.87,0.57 -1.72,2.58 -0.86,2.72 -1.03,1.34 -1.84,-0.32 -3.95,2.48 -0.98,1.17 -0.79,0.2 -0.86,2 -1.43,1.58 -4.15,0.14 -3.86,2.43 -2.29,0.29 -0.43,5.01 -4.29,1.15 -2.43,1 -0.2,0.47 0,0 -1.81,2.23 -0.97,-0.73 0.16,1.25 -1.21,0.1 -1.05,-0.77 -0.66,1.05 -0.47,0 -0.37,-0.73 -0.87,0.19 -0.05,-0.93 -1.23,-0.03 0.11,0.51 -0.71,0.32 -0.71,-0.73 -0.21,-0.48 0.89,-0.41 0.82,-1.31 -0.66,-0.77 0.05,-1.06 -0.87,-0.29 0.21,-0.99 -1.68,0.8 0.52,1.76 -1.18,0.96 -0.34,-1.53 -1.78,-0.73 -0.16,-0.77 0.45,-0.58 -1.84,0.32 -0.42,1.73 -0.63,-0.83 -0.84,0.26 0.76,-1.09 -0.66,-1.02 0.19,-0.86 -0.55,0.23 -0.97,-1.31 -0.21,-3.23 1.63,-1.22 1.44,-0.16 0.87,-0.99 -1.23,0.74 -2.97,0.61 -2.21,2.59 0.47,1.25 0.92,0.35 -0.63,0.61 0.34,0.7 0.58,-0.32 0.55,0.45 0.95,2.11 -0.34,0.54 -1.02,0.29 -0.81,-0.29 -0.13,0.7 1.02,0.35 0.81,-0.51 0.68,0.1 -0.31,0.93 0.37,2.46 2.44,1.95 0.03,0.29 -2.28,0.35 0.79,0.96 1.37,-0.32 0.84,0.32 0.03,0.38 -2.81,1.15 -3.13,0.61 0.55,-0.89 0.87,-0.25 0.34,-1.05 -0.34,-0.06 -0.42,0.9 -0.31,-0.41 -1.65,0.22 0.58,1.37 -0.47,0.32 -0.74,-0.16 -1.29,-1.82 2.23,-0.16 -0.31,-1.21 0.97,-0.67 0.89,-0.06 0,-0.38 -3.78,-1.15 0.6,-0.73 -0.37,-0.35 -0.5,0.32 -0.08,-1.44 -1.02,1.82 -0.52,-0.16 -1.02,0.8 -0.63,0.03 -0.86,-0.93 -1.02,-0.29 0.1,0.83 -1.02,0.42 -1.42,-0.83 -0.87,-0.06 -0.21,1.06 2.97,1.72 0,0.39 -0.42,0.35 -0.66,-0.74 -0.42,0.96 -2.1,0.19 -1.31,1.95 -1.15,0 0.05,-0.83 -0.39,-0.06 -1.1,0.99 -1.55,0.38 -0.08,0.54 -0.76,-0.41 0.71,1.6 -0.84,0.67 -0.39,-0.19 0.13,0.89 -1.13,0.86 0.03,0.67 0.84,-0.73 1.89,-0.35 0.11,-1.76 1.5,-0.89 4.07,-1.02 -0.58,-0.99 0.39,-1.02 0.79,-0.19 0.39,0.83 0.89,-0.51 0.08,-0.93 1.26,1.31 -0.45,0.86 0.39,0.35 -0.26,0.9 -1.34,-0.35 -0.44,0.29 0.71,0.51 1.31,0.16 0.39,0.57 -0.42,0.83 1.87,0.9 0.11,0.61 -0.92,1.24 -0.37,-0.64 -0.47,0.1 0.13,1.18 -0.71,0.1 -0.03,0.67 -1.29,-0.51 0.34,0.89 -0.39,0.13 -2.18,-0.73 -3.02,-0.06 0.03,1.44 0.87,-0.51 1.08,0.1 1.21,0.38 0.24,1.05 -1,1.4 -0.94,0.54 0.58,0.26 0.08,1.09 -0.5,0.61 1,0.89 -0.66,0.45 0.08,1.31 -1.1,0.77 0.79,0.77 -0.6,0.77 0.39,1.53 -0.21,1.24 0.92,-0.67 0.26,-0.51 -0.34,-0.13 0.08,-0.51 1.44,-1.43 -0.13,-0.7 -0.63,-0.45 0.16,-0.32 1.23,-0.1 0.66,1.12 -0.08,0.57 0.45,0 0.08,0.83 0.81,-0.1 0.16,0.35 -0.76,2.29 -0.68,-0.22 -0.37,-1.11 -0.31,0.92 0.32,1.02 -0.87,-0.13 0.63,0.86 -0.13,1.4 -1.68,1.02 -0.81,-0.29 -1.44,0.64 2.76,0.64 0.24,0.92 -0.26,0.57 0.24,1.5 -0.89,-0.29 -0.1,0.45 0.81,0.86 -0.58,0.54 -1.31,-0.25 1.52,1.21 -1.02,1.34 -0.13,0.89 -1.68,-0.09 -0.24,-0.64 -0.58,0.35 -0.08,-1.69 -0.21,-0.19 -0.6,0.57 -0.21,-0.54 0.5,-0.64 -0.84,-1.21 -0.63,0.96 -0.18,-0.6 -0.94,-0.16 0.79,-0.89 0.71,-0.06 -0.37,-0.54 0.31,-0.73 -2.99,-1.21 -1.05,0.96 -0.58,-1.05 0,-0.64 0.34,0.35 0.58,-0.32 -0.24,-1.43 0.5,0.1 0.16,1.02 0.5,-0.29 -0.16,-0.73 0.6,-0.16 0.47,0.35 -0.13,0.57 0.74,0.51 0.63,-0.54 1.23,2.52 -0.18,-1.75 1,0.32 0.95,-0.76 -0.47,-0.29 -0.63,0.61 -0.24,-0.64 -0.55,0.06 0.42,-0.86 -1.31,0.1 0.31,-0.48 -0.68,-0.67 0.76,-0.1 0.97,-1.27 2.26,0.48 0.66,-0.35 -0.34,-0.6 -2.81,0 -0.5,-0.67 0.32,-1.02 -0.37,-0.67 -0.29,0.7 -0.79,-0.41 0.63,1.47 -0.34,0.42 -1.57,-0.32 -0.47,-1.69 -0.21,1.56 -0.66,-0.19 0,-0.83 -0.76,-0.1 0.37,0.61 -0.89,0.19 -0.03,-1.24 -1.08,0.8 -0.63,-1.47 -1.15,-0.86 0,-0.38 1.39,-0.7 2.49,0 0.79,0.48 0.79,-0.35 -0.31,-0.51 0.29,-0.67 -0.68,-0.06 -0.16,-0.25 0.37,-0.16 -0.6,-0.57 0.18,-0.86 -0.47,-1.53 -0.47,0.45 -0.55,-0.25 0.21,-1.08 -0.34,0.16 -0.97,-0.8 0.18,1.18 -0.34,0.13 0.45,0.7 -0.42,0.07 -0.18,0.6 -1.42,0.22 0.47,2.07 -1.42,1.02 -0.71,-0.73 0.03,1.4 -0.58,-0.03 -0.03,-0.67 -0.94,-0.22 0.24,-0.67 -0.63,-0.51 0.73,-1.37 -0.31,-0.67 -0.63,-0.1 -0.37,0.45 -0.66,-0.61 -0.29,0.7 -0.02,-0.86 -0.58,-0.19 -1.05,0.51 -0.58,-0.6 -0.42,0.83 -0.52,-0.41 -0.18,0.45 -0.31,-0.29 -1,0.45 0.79,1.27 -0.5,1.24 0.31,2.45 -1.89,-0.16 -0.66,-1.4 -0.21,1.21 -0.74,0 -0.68,-1.21 -1.6,0.57 -0.87,1.56 -1,-1.85 -1.05,0.26 -0.73,-1.02 0.6,-0.89 0.66,-0.16 0.18,0.54 0.24,-0.8 -4.15,-0.44 -0.1,0.38 -2.07,-0.7 -1.37,-1.24 -0.03,-0.7 -0.92,-1.34 1.81,-1.37 0.37,-0.96 -0.76,-0.38 -0.58,-1.69 1.02,-2.33 -0.42,-0.8 -0.73,0.64 -0.16,-0.51 0.6,-1.02 -0.26,-1.21 0.95,-3.22 1.16,-0.99 -0.63,-0.32 -2.02,1.53 0.21,0.61 -0.92,0.86 0.39,1.05 -0.32,1.53 -0.55,0.61 -1.08,-0.25 -0.34,-0.48 1.18,-0.64 -0.24,-0.7 -0.03,0.45 -0.71,0.42 -0.32,-0.61 -1.73,-0.32 -0.5,1.25 -0.39,0.1 -0.03,0.29 0.87,0 0.24,-0.8 0.84,0.16 -0.16,0.67 1.29,1.06 -0.13,1.09 1.13,0.26 -0.39,2.23 -0.71,-0.41 0.05,1.53 -0.44,-0.19 0.18,-0.51 -0.71,-0.89 -0.45,0.16 0.13,1.15 -0.42,-0.57 -0.42,0.19 0.55,0.73 -0.87,0.45 -1.13,-2.17 -0.79,0.19 -0.47,1.18 -0.45,-0.22 -0.47,0.32 0.5,0.86 -1.5,-0.54 0.37,-0.83 -0.6,0.22 -0.26,-0.64 0.32,-0.51 0.45,0.29 0.08,-1.24 -0.71,-0.19 -0.84,-1.25 -0.47,0.7 0.29,0.73 -0.63,1.4 0.21,0.99 -0.92,0 0.4,1.25 -1,0.13 -0.5,0.99 0.18,0.35 -0.73,0.57 -0.74,0 -0.37,0.77 -1.44,0.19 -0.45,-0.45 -1.05,0.45 -0.24,-1.53 -0.42,-0.25 -0.16,0.64 -0.55,-0.86 -0.42,2.1 -0.5,0.32 -0.47,-0.73 -0.75,0.16 -0.09,-0.45 -0.7,-0.32 0.04,-2.93 -1.58,-4.11 0,0 -1.74,-1.33 0,0 -1.18,-1.87 -1.62,-0.69 -0.77,-1.24 0,0 -1.09,-1.05 0,0 -0.19,-2.9 -3.04,-3.64 -2.22,-1.13 -1.3,-1.69 -0.91,-9.22 -2.66,-2.99 0.02,-1.56 0.79,-0.7 0,0 0.23,-0.2 0,0 2.22,-2.31 -0.55,-2.87 0.34,-1.16 0.82,-1.99 3.7,-3.57 0.56,-3.46 0,0 -0.1,-0.55 0,0 -1.63,-0.43 0,0 -0.69,-1.93 0,0 0.69,-3.34 0,0 -1.27,-2.27 0,0 -0.5,-1.05 0.08,-1.86 0,0 -0.69,-0.7 -2.08,-0.67 0,0 -0.17,-2.32 0,0 1.59,-3.28 0,0 0.79,-4.74 0,0 1.91,-4.94 0.94,-1.45 0,0 0.89,-0.8 0.16,-1.92 0,0 0.78,-4.82 1.67,-1.14 3.27,-3.59 0.81,-2.29 0,0 0.67,-1.21 0,0 0.18,-0.58 0,0 0.21,-0.64 0.44,0.17 0,0 0.71,0.49 0,0 1.31,-0.05 0,0 1.83,-1.15 0,0 1.46,-0.01 1.78,-1.65 1.32,-0.24 0.54,-1.94 1.51,-2.69 2.33,-1.51 0.13,1.94 0.3,0.77 z m 85.94,91.96 0.4,0.06 0.11,1.37 1.02,-0.29 0.47,1.76 -1.63,3.42 0.66,0.8 -0.58,1.44 -0.73,0.41 0.26,-0.6 -0.76,0 0,-0.77 -0.34,-0.19 0.13,-0.8 0.69,-0.41 -2.05,-0.89 -0.08,-0.38 0.66,0.06 0.37,-0.48 -0.76,-0.61 0.45,-0.19 -0.05,-0.67 -0.52,-0.7 -0.76,-0.13 -0.13,-0.7 0.87,-0.29 0.03,-0.38 1.58,-0.1 0.13,-0.67 0.56,-0.07 z m -14.31,3 0.73,0.29 0.45,0.86 0.76,-0.1 -0.05,-0.54 0.53,0.51 0.79,0 0.89,1.47 -0.87,1.66 -0.55,-0.45 -0.5,0.35 -0.1,0.38 0.52,0.19 0.08,0.48 -1.37,0.06 0.18,0.61 0.61,-0.09 -0.52,1.15 0.13,1.09 0.66,0 0.4,0.89 0.89,0.03 -0.18,0.83 0.37,0.77 0.66,0.19 0.13,1.15 -0.42,0.22 -0.44,-0.32 0.03,2.17 0.53,0.77 -0.37,0.51 -0.89,-0.29 0.63,1.31 -0.97,0.16 -0.34,0.7 -0.68,0.29 -0.05,1.05 1.45,0.29 -0.45,0.64 0.34,0.26 0.76,-1.47 1.1,-0.76 0.97,0.57 1.18,-1.05 -0.87,1.21 0.16,0.48 -0.58,0.1 0.45,1.24 -0.66,0.7 -0.94,-0.54 -0.26,0.26 1.16,2.39 -1.13,0.28 -0.58,-0.99 -1.6,1.05 0.03,0.89 0.63,0.54 0.87,-1.02 0.74,0.54 0.11,0.57 -0.71,0.51 2,3.37 0.03,0.77 -0.5,0.1 -0.5,-0.76 -1.89,-0.19 -0.02,-0.41 0.58,-0.38 -0.76,-1.37 -0.97,0.64 0.11,1.21 -0.29,0.06 -0.68,-0.19 0.34,-0.48 -0.13,-0.76 -2.07,-0.45 -0.24,2.29 0.71,0.86 -1.44,1.27 -1.18,-0.44 -0.73,1.78 1.39,2.39 1.97,-0.25 0.73,0.45 0.13,0.41 -0.63,0.13 0.03,0.86 -0.52,-0.83 -1.42,-0.51 -0.39,0.64 -1.18,-0.19 -0.92,0.57 -0.18,-0.7 -0.47,0.76 0.84,1.21 0.81,0.22 0.24,0.54 -0.39,0.38 -0.63,0.03 -0.58,-0.51 -1.5,1.46 -1.81,-0.92 -1.29,0.76 -0.16,-0.54 0.5,-0.98 0.74,-0.1 -0.29,-0.67 1.76,-0.48 0.32,-0.51 -0.58,-0.7 -1.36,0.06 -0.89,-0.48 0.03,-1.27 0.45,-0.51 -0.26,-0.67 2.05,-0.16 -0.05,-0.44 -0.81,-0.32 0.5,-0.86 -1.42,0.29 -0.71,-0.35 -1.24,1.4 -0.76,-0.19 -0.08,-0.89 1.42,-1.4 -1,-0.16 -1.39,1.56 0.24,-1.05 -0.66,-0.38 0.97,-0.16 0.24,-0.54 2,0.03 1.18,-0.51 0.03,-2.29 1.05,-0.86 -0.08,-0.76 -0.71,0.19 -0.18,-0.86 -0.66,-0.19 -0.16,-0.48 1.05,0.32 0.03,-0.7 -1.44,-0.83 -0.97,1.34 0.16,1.15 -2.34,-0.29 -0.21,0.7 -0.76,-0.45 -0.47,0.64 0.37,0.73 -0.76,-0.25 0.37,0.92 -0.66,0.77 -0.6,-0.03 -0.13,-0.99 -0.81,-0.7 0.68,-0.86 -1.21,-0.16 -1.26,-0.92 -0.37,-0.89 0.26,-0.35 -0.63,-0.38 0.37,-0.35 -0.52,-1.75 0.42,-1.27 0.76,-0.54 0.71,-1.34 0.82,-0.06 -0.39,-0.7 0.81,0.35 -0.47,-0.8 0.6,0.41 0.84,-0.22 -0.03,-0.64 0.95,-0.92 0.92,0.19 0.97,0.86 0.03,0.54 1.94,1.21 0.92,-0.16 0.05,-0.41 -0.6,-0.51 1.44,-0.77 0.53,0.83 0.53,-0.25 0.21,0.67 0.79,-0.38 0.68,1.43 1,0.32 0.05,-0.73 -0.89,-1.47 0.26,-0.64 -1,0.29 0.26,-1.05 -0.71,-0.1 -0.79,-1.88 -0.92,-0.29 0.34,-1.05 0.42,0.41 0.53,-0.57 -0.13,-1.37 0.74,-0.51 0.47,0.29 -0.5,1.09 1.13,-0.64 1.47,0.29 -0.03,-0.64 0.89,0.89 0.74,0.16 0.29,-0.32 -0.55,-0.22 0.11,-1.12 0.5,-0.89 0.58,-0.22 -0.5,-0.06 -0.05,-0.67 1.05,-0.26 -0.5,-0.8 0.74,0.35 0.34,-0.48 0.4,0.99 0.6,0.03 -0.73,-1.31 0.84,-0.16 -0.1,-0.57 -0.42,0.42 -0.89,-0.29 0.39,-1.66 0.4,-0.06 -0.03,-1.28 0.89,-0.13 -0.87,-0.57 0.13,-0.34 z m -2.81,2.17 0.47,1.25 -0.66,1.24 -0.05,0.42 0.58,0.16 -0.63,0.06 -0.05,1.72 -1.73,0.38 0.29,-0.41 -0.79,-0.29 -0.39,0.89 -0.76,0.19 0.21,-1.4 0.45,-0.22 0.18,0.32 0.74,-0.92 -0.08,-0.29 -0.92,0.03 0.11,-0.51 1.58,-0.03 -0.23,-1.12 0.63,-0.77 0.52,0.38 0.53,-1.08 z m -71.45,8.65 0.55,0.54 0.89,-0.03 0.08,0.45 0.47,-0.35 0.21,0.67 0.18,-0.8 0.63,0.29 -0.39,0.64 0.71,2.13 -0.47,1.56 0.16,1.24 -0.58,-0.03 -0.95,0.96 -0.71,-0.1 -0.34,1.5 1,2.23 0.63,0.45 -0.58,0.92 1.47,1.05 0.71,-0.29 1,0.67 0.16,2.13 0.92,0.45 0.79,-0.19 0.34,-0.32 -0.68,-0.54 1.81,-0.7 -0.1,-0.67 1.23,-0.7 2.68,0.19 0.05,-0.32 1,-0.16 0.39,0.83 1.08,0.57 0.24,-0.38 1.18,0.48 0.55,0.96 -0.47,0.92 0.39,0.45 -0.45,0.32 -0.73,-0.25 -0.13,0.64 0.6,0.32 -0.76,1.21 0.87,3.53 -0.26,0.7 -0.66,0.19 -1.24,1.31 -0.18,0.83 2.49,1.78 -0.66,-0.32 -0.03,0.45 -0.6,0.06 -0.39,0.61 -0.73,-0.13 0.13,-0.48 -0.87,-0.03 -0.24,0.79 -0.49,-0.15 0.66,-1.94 -0.94,-0.6 -0.79,0.29 0.31,0.7 -0.24,0.38 -0.47,0 -0.26,-0.51 -0.79,0.32 -0.34,-0.83 -0.47,0.29 0.39,0.7 -0.39,0.45 -1.1,-0.32 -1.47,0.26 -0.39,-0.86 0.47,-0.19 -0.05,-0.48 -0.66,-0.22 -0.6,-2.54 0.39,-2.1 0.66,-0.89 -0.42,-0.54 -2.1,0.19 -2.26,1.15 0.71,3.69 -0.5,0.73 -1.63,0.6 -2.99,-0.64 0.42,-0.73 -1.08,-0.41 0.53,-0.54 -0.34,-0.67 -1.5,-0.1 -0.16,-0.86 0.58,-0.13 0.21,-0.6 -0.26,-0.54 1.08,-0.25 -0.6,-2 -0.73,-0.26 -0.37,-0.7 0.24,-1.43 -0.84,-0.32 0.05,-0.73 -1.39,-1.85 -0.58,-2.83 0.97,-0.89 -0.21,-0.73 0.29,-0.35 0.97,-0.06 -0.18,-0.89 0.6,-0.92 -0.34,-0.32 1,-0.54 0.18,-0.86 0.39,0.61 1.65,-0.22 -0.97,-1.27 0,-0.86 0.53,0 -0.42,-0.7 1.08,-0.38 -0.08,-0.57 0.5,-0.67 2.15,-0.6 z m 12.95,2.77 0.24,0.7 -0.71,1.69 -0.89,0.83 -0.55,3.15 1.29,0.29 -0.13,-2.07 1.31,-1.75 1,0.13 0.21,1.59 0.6,-0.26 1.08,1.31 -0.13,1.4 -0.76,0.25 -0.34,0.8 0.76,-0.32 0.26,0.73 -0.39,0.45 1.45,0 0.03,0.7 0.89,0.26 0.16,0.99 -0.87,0 -0.5,-0.86 -0.73,0.6 -0.97,-0.95 -0.79,0.32 -2.28,-1.53 -0.31,1.21 -1.39,0.32 -1.63,-0.06 -1.65,-0.83 0.26,-0.35 -0.76,-0.73 -0.24,-1.18 0.18,-0.96 1.31,-0.83 0.11,-0.83 1.16,-0.92 0.05,-1.05 0.68,-0.96 1.76,-1.05 0.58,0.19 0.65,-0.42 z m 16.07,7.14 2.31,0.99 0.76,0.8 -0.26,0.32 -2.23,-0.1 -0.58,0.41 -0.47,1.24 -0.97,0.38 -0.55,-0.76 0.42,-0.54 -1.29,-0.32 -0.29,-1.34 3.15,-1.08 z m 3.46,2.2 1.26,1.98 1.5,0.89 -0.55,0.8 -2.02,-0.19 0.58,1.15 -0.31,0.73 -0.47,-0.76 -1.26,0.03 -0.03,-0.79 -1.26,0.06 -0.13,-0.38 0.69,-0.16 -0.19,-0.32 -1.36,-0.38 0.16,-0.8 0.39,0.41 0.81,-0.03 -0.66,-0.6 0.87,-1.24 1.98,-0.4 z m 23.4,2.67 0.1,0.32 -0.71,0.38 0.37,0.41 0.1,-0.45 0.42,0.03 -0.24,0.54 0.68,0.77 0.11,2.13 1.21,-0.25 0.55,0.83 -0.32,1.18 -1.89,1.11 -0.66,-0.51 -1.34,0.06 0.37,-0.25 -0.37,-0.64 0.58,-0.25 -1.34,-1.78 0.32,-0.54 -0.08,-1.75 0.53,0.57 -0.05,1.21 0.76,-0.38 -0.16,-1.05 1.13,0.64 -0.68,-1.02 -0.87,0.25 -0.29,-0.73 0.29,-0.83 1.48,0 z m -22.61,18.9 1.21,0.95 0.66,-0.22 1,0.83 -0.24,0.57 -0.76,0.13 0.68,0.32 0.26,0.64 0.95,-1.65 1.34,-0.03 -0.55,0.54 0.29,0.38 -0.81,0.45 0.16,0.92 -1.65,-0.1 -0.08,-0.48 -0.76,-0.28 -0.68,0.89 -1.08,0.03 -0.16,0.92 -0.89,-0.16 -0.26,-0.57 1.08,-0.19 0.05,-0.51 -0.79,-0.57 0.26,-0.76 -0.87,0.51 -0.45,-0.73 1.1,-0.38 -0.68,-0.98 0.55,-0.41 1.12,-0.06 z"
        title="South Gyeongsang"
        id="KR-48"
    />
</svg>
