<svg
    xmlns:mapsvg="http://mapsvg.com"
    xmlns:dc="http://purl.org/dc/elements/1.1/"
    xmlns:rdf="http://www.w3.org/1999/02/22-rdf-syntax-ns#"
    xmlns:svg="http://www.w3.org/2000/svg"
    xmlns="http://www.w3.org/2000/svg"
    mapsvg:geoViewBox="125.384480 38.612150 130.921968 33.194037"
    width="524.23737"
    height="630.5871"
>

    <path
        d="m 92.784286,270.55884 -0.1,0.91 -1.31,-0.62 -0.47,0.68 -0.24,-1.39 1.08,-0.75 0.03,-1.33 0,0 0.66,0 0.21,1.69 0.95,0.71 -0.81,0.1 z m 7.280004,-4.78 -0.730004,0.78 1.160004,0.58 1.58,0.16 -0.16,0.94 -1.42,-0.13 -0.18,-0.62 -1.650004,-0.45 -1.63,0.03 -0.39,-0.58 -1.21,0.42 -0.66,-0.26 -0.03,-1.07 0.74,-0.55 1.44,0.49 1.08,0.91 -0.52,-1.43 0.95,-0.46 0,0 1.02,0.1 0.16,1.04 0.450004,0.1 z m -5.750004,-16.7 0.26,0.33 1.16,-0.03 0.81,0.94 0.21,1.11 -0.53,0.36 -0.02,0.55 1.1,-0.32 -0.16,1.82 0.87,1.43 -1,1.43 0.79,0.2 0.71,1.43 0.87,0.13 -0.21,0.98 0.47,1.17 -1.29,1.01 0.58,1.36 -0.84,0.13 0.21,-0.46 -0.34,-0.45 -0.5,0.29 -0.16,-1.17 -1.21,0 0.37,-0.75 -1.92,-0.03 -0.05,0.58 -0.92,0.52 -0.5,-0.62 -0.42,0.07 -0.13,-1.01 -0.68,0.03 0.55,-1.88 -2,0.2 -0.45,-0.58 0.24,-0.65 -0.37,-0.98 0.76,-1.72 -1.37,0.39 0.11,-0.49 0.68,-0.29 0.29,-2.11 -0.05,-0.65 -0.6,-0.29 0.29,-0.91 -0.52,-0.19 0.32,-5.21 -1.44,-1.85 -0.21,-1.53 0.89,-0.85 0.05,-0.81 2.78,-2.12 0,0 0.42,-0.16 0.92,0.78 -0.05,1.14 0.79,0.62 -0.18,0.75 0.42,0.1 -0.05,1.14 -1.36,0.46 -0.16,0.52 1.47,0.68 0.34,1.76 -0.24,1.5 1.02,1.37 -0.1,0.59 -0.72,0.24 z m 6.770004,-61.83 -2.810004,0.3 0.29,-0.98 -0.6,-1.08 0.26,-0.72 0,0 2.360004,0.39 0.53,0.82 -0.03,1.27 z m 4.52,-2.55 2.02,0.72 0,0 1.55,2.26 2.21,0.36 6.8,4.06 1.6,0.39 4.75,-0.16 0.37,0.79 7.51,2.03 0.29,0.43 -0.37,0.95 1.58,2.68 -0.31,0.43 0.42,0.79 0.37,0.56 0.29,-0.33 0.47,0.16 0.53,3.37 0.95,1.08 0.03,0.56 3.57,0.65 1.71,-0.78 2.78,-0.28 0.99,-0.06 0.83,-1.21 1.64,-0.81 7.55,1.76 0.83,-0.61 0.94,0.01 3.17,-1.16 3.01,-2.07 2.58,-0.08 2.99,1.43 1.34,1.8 1.95,1.59 5.1,0.7 0.91,2.42 2.84,1.92 0.23,2.66 1.48,0.71 0.53,0.07 0.06,0.42 -0.16,2 1.08,0.48 2.88,0 3.12,2.18 1.25,3.75 -1.56,1.87 -3.74,-0.31 -4.99,7.8 -2.44,0.2 -2.56,-0.94 -2.7,-1.62 -1.48,-1.62 -2.56,-0.81 -2.7,1.08 -0.4,1.75 1.08,2.02 0.54,2.02 0.27,3.1 -0.67,2.43 0.27,3.37 0.14,3.51 0,3.1 -1.08,2.43 0.14,2.02 1.89,2.56 2.7,1.48 1.35,3.91 0.27,2.83 -0.13,4.04 1.21,3.1 1.75,1.35 1.71,2.06 0.31,4.06 2.18,1.87 0.31,3.43 1.56,2.19 2.5,0.94 0.94,3.12 1.25,0 0.94,-2.18 0.63,-4.99 -0.31,-3.12 1.56,0 0.62,1.56 0,1.87 2.18,3.74 3.75,2.19 2.18,-2.81 3.35,-2.18 2.8,0.98 1.03,0.85 2.8,-0.27 1.87,3.12 0.31,3.12 -1.25,2.81 0.31,2.81 2.18,1.87 1.56,3.12 0.93,2.8 -0.31,0.33 0,2.49 -2.81,2.81 -1.56,-1.25 -2.6,-1.28 -1.89,1 -1.03,0.18 -0.16,2.21 -0.94,1.87 -3.12,0.62 -3.43,-0.31 -0.62,-2.81 -0.07,-2.18 -0.61,-0.16 -3.06,1.72 -1.25,0 -1.87,-4.37 -0.35,-2.77 -2.96,-5.1 -1.13,-1.63 -2.42,2.02 -4.37,-0.31 0.63,2.5 -5.3,0.31 -1.73,-1.73 -1.12,-0.16 -1.9,1.15 -2.3,0.23 -1.48,0.72 -2.55,-0.18 -0.51,-0.81 -0.02,-1.21 -2.43,-0.19 -0.31,-3.74 -2.19,-2.01 -1.27,0.38 -3.76,-2.27 -3.68,-0.67 -2.68,2.01 -2.01,0.67 0,8.44 -7.18,3.43 -4.37,1.56 -1.48,-1.36 -1.31,0.56 -0.68,-0.33 -0.31,1.03 -1.08,1.13 -4.28,-1.07 -1.13,0.61 -0.73,-0.74 0.42,-1.07 -0.47,-1.07 0.68,-0.06 0.08,-0.42 -2.26,-2.59 -1.05,0.1 -0.29,-2.81 -1.05,0.19 0.68,-1.03 0.73,0.42 1.1,-0.81 -0.08,-0.52 -1.18,0.32 0.03,-0.84 -1.05,-0.49 -0.81,0.71 -1.34,-2.94 -2.55,-2.2 -1.39,1.39 -0.13,-0.91 -0.79,-0.94 -2.63,-0.94 -1.18,0.32 -0.29,2.4 -1.08,-0.97 0.03,-2.75 0.81,0.45 1.55,-0.23 0.76,-0.97 -0.18,-2.23 1.1,-1.59 0.39,-0.03 -0.89,-4.5 0.66,-0.78 0.32,-1.75 0.71,-0.13 0.05,-0.49 -0.58,-0.97 -0.73,-0.29 0.5,-0.32 -1.18,-2.24 -0.92,0.13 -0.42,-1.62 -1.23,-1.59 0.45,-0.52 0.84,0.42 0.63,-0.81 2.23,-0.78 0.29,-0.68 0.92,-0.55 2.6,0.23 -3.26,-0.68 -4.73,-3.28 -1.78,-0.03 0.42,-3.21 0.92,-1.92 1,-0.23 1.39,-1.43 1.26,0 0.66,-1.2 0.68,0.1 0.18,-0.39 1.5,0.1 0.68,-2.76 1.26,0.72 1.44,-0.26 1,-1.24 -2.23,0.78 -1.44,-0.91 -0.5,0.49 -0.5,-0.59 -0.1,0.75 -2.1,1.37 -0.31,1.17 -0.79,0.06 -0.31,1.4 -2.62,1.33 0.26,-1.2 -1.23,-1.3 0.11,-1.79 -0.66,-1.01 0.24,-3.41 0.71,-0.26 0.26,-0.98 1.05,-0.88 2.15,0.81 1.29,1.53 0.76,-0.1 -1.65,-1.56 -1.76,-0.68 -0.73,-0.75 -1.5,1.27 -0.23,-1.01 -2.13,-1.89 0.66,-1.69 -0.73,-3.03 -1,-1.2 -3.460004,-1.4 -0.55,-0.94 -3.62,-0.59 -0.68,-0.65 -2.34,1.4 -1.58,1.53 -0.58,1.56 -0.6,-0.59 -1.58,1.86 -0.21,-0.91 -0.81,-0.81 0.66,-1.04 -0.1,-1.89 1.05,-0.75 -0.13,-3.16 -1.08,-2.31 -0.55,-0.42 -0.8,0.33 -0.92,-0.23 -0.08,-0.75 0.4,-0.36 -0.53,-0.33 -0.1,-0.72 0.11,-0.69 1.02,-0.68 -0.21,-1.44 0.29,-0.78 0.47,0.13 0.34,-0.42 -0.39,-0.75 -0.87,0.07 -1,1.47 -2.1,-0.1 -0.18,0.98 0.6,0.49 -0.1,0.36 -0.76,0.23 0.13,0.59 -2.31,0.23 0.13,0.65 -0.94,0.23 0.18,0.46 -0.45,0.98 -0.79,0.26 -0.31,-0.75 -0.89,0.39 -1.92,-0.29 -0.6,-2.02 0.34,-0.29 -0.56,-0.57 0.26,-0.42 1.18,-0.29 -0.29,-0.39 0.95,-0.78 1.29,0.36 1.47,1.11 0.81,0.07 0.97,-0.72 0.58,-1.21 -0.89,-0.65 -1.05,0.65 0.05,-0.65 1.21,-1.69 -1.23,0.59 -1.92,-1.08 1.02,-1.34 -0.87,0.2 -0.31,-0.42 -1.5,-0.06 -0.87,0.55 -1.55,-0.85 0.13,0.91 0.87,0.75 0.16,2.02 -2.68,2.68 -0.42,0 0.13,-0.78 0.53,-0.29 -0.34,-1.17 1.13,-1.63 -0.39,-0.62 0.31,-0.42 -0.16,-0.29 -0.71,0.29 -0.34,-0.56 0.24,-0.68 -0.39,-0.06 0.18,-0.49 -0.81,-0.46 -0.08,-0.56 1.81,-0.36 -0.03,-1.27 0.42,0.52 1.05,-0.85 0.42,-1.57 -0.5,0 -0.24,-0.65 0.68,-0.39 -0.03,-0.56 0.66,-0.06 0.18,-1.18 -1.29,-1.21 0.92,-0.03 -0.58,-1.04 0.63,0.29 0.47,-0.75 0.08,1.08 1.02,0.06 -0.5,1.31 0.63,0.59 -0.18,1.83 0.24,0.2 0.45,-0.72 1.29,3.33 0.63,0.36 -0.53,-2.64 -0.84,-0.49 -0.26,-1.21 1.1,-0.1 -1.42,-1.57 1.13,-0.78 0.95,-1.96 -1,0.07 0.05,-1.21 -0.66,0 -0.08,-0.49 0.89,-0.69 -0.52,-0.69 -0.92,-0.16 0.1,-0.36 1,-0.29 0.45,0.52 0.42,-0.1 0.29,-0.56 -0.29,-0.33 0.68,-0.39 -0.18,-0.98 0.92,0.79 0.55,-0.82 1.55,-0.39 0.26,-0.69 0.5,0.26 0.97,-0.36 -0.45,0.69 2.68,1.31 1.02,-0.23 -0.37,-1.08 0.84,-1.31 -0.29,-3.7 -0.76,-1.44 0.42,-0.72 0.87,0 0.53,-0.98 0.53,-0.1 0.26,0.75 -0.45,0.82 -1.02,0.26 0.81,1.05 0.63,-0.36 0.37,0.26 -0.95,1.31 0,3.24 0.66,0.46 0.13,0.75 0.87,0.26 0.18,1.6 0.97,0 -0.13,0.56 -1.23,0.03 -0.39,0.36 -0.03,0.82 -0.97,1.21 -0.03,1.01 -0.62,0.62 -0.08,1.18 2.1,0.46 -0.16,0.69 -1.92,0.95 -1.13,-0.03 -0.23,0.75 0.68,0.42 -0.21,1.31 0.5,0.62 0.53,-0.52 -0.13,-0.59 0.37,-0.26 0.26,0.52 0.32,-0.2 -0.31,-0.62 0.34,-0.42 0.76,0.43 0.87,-0.88 0.53,0.59 0.6,-0.03 0.08,-0.39 -0.94,-0.75 -0.1,-0.75 0.39,-0.42 -0.97,-0.75 1.13,-2.68 0.76,0.46 0.84,-0.16 -0.42,1.7 1.26,1.73 0.81,0.1 -0.89,-1.86 1.44,-1.24 0.03,-1.34 -0.63,-0.88 1.23,-0.72 1.94,0.26 -0.16,-1.54 0.71,0.29 0.11,-0.75 0.97,0.39 0.29,-0.49 1.1,-0.06 0.13,-0.36 -0.45,-0.56 -1.71,-0.26 0.21,-0.78 -0.55,-0.36 -0.08,-0.29 0.87,0.2 0.53,-0.52 -0.03,-1.5 -0.92,-0.43 0.05,0.46 -0.97,0.1 -0.76,0.79 -0.63,-0.56 -0.24,-1.28 -1.18,-0.26 -0.94,0.92 -0.26,-0.26 0.45,-1.08 -0.92,-0.16 -0.18,-1.15 -1.44,0.16 0.21,-1.08 2.47,0 0.71,1.11 0.45,-0.98 1.1,0 0.11,-0.36 -0.13,-0.33 -0.87,0.16 0.1,-0.72 -0.55,-0.52 -0.81,0.49 -0.18,-0.49 -2.97,-0.23 -0.31,-1.83 0.71,0.36 1.65,-0.88 0.32,-0.79 0.81,0.52 1.76,-0.36 0.34,-0.69 0.37,0.49 3.6,-0.1 2.680004,1.34 1.26,-0.65 -1,-1.9 0.42,0.1 2.18,-2.52 -0.53,-0.56 0.71,-1.38 0.5,0 0.37,-0.74 z"
        title="South Chungcheong"
        id="KR-44"
    />
</svg>
