<svg
    xmlns:mapsvg="http://mapsvg.com"
    xmlns:dc="http://purl.org/dc/elements/1.1/"
    xmlns:rdf="http://www.w3.org/1999/02/22-rdf-syntax-ns#"
    xmlns:svg="http://www.w3.org/2000/svg"
    xmlns="http://www.w3.org/2000/svg"
    mapsvg:geoViewBox="125.384480 38.612150 130.921968 33.194037"
    width="524.23737"
    height="630.5871"
>

    <path
        d="m 361.40429,346.70884 1.8,1.47 2.01,0.31 0.98,0.59 0.23,0.82 0,0 -0.42,2.85 0,0 0.28,0.77 0.74,0.33 0,0 1.97,0.66 0,0 1.43,-0.25 2.82,-1.84 1.12,-0.31 0,0 1.48,-0.01 0,0 4.89,1.74 0,0 1.76,0.42 0,0 2.9,0.41 0.7,1.45 -0.03,1.38 -0.74,0.2 -0.39,0.58 0.53,3.14 -0.61,1.06 -0.05,1.35 -0.11,0.36 -1.02,0.16 0.03,0.48 0.73,-0.39 -0.18,1.58 -1.21,0.51 0.03,0.29 0.84,-0.16 0.13,0.61 -1.26,0.61 0.18,0.45 0.95,-0.39 0.36,0.65 -0.47,-0.07 -0.55,1.25 -1,-0.41 0.08,0.35 -1,0.13 0.05,0.51 -0.52,0.48 -0.42,-0.19 -0.24,-1.48 0.4,-0.99 -0.63,-0.84 -0.53,-0.06 0.19,-1.38 -0.82,-1.57 -1.94,-2.13 -1.5,-0.48 0,0.68 1.39,0.48 0.92,1.19 -0.08,1.12 0.97,0.26 -0.07,0.83 0.42,0.62 -0.32,0.44 -0.52,-0.22 -1.03,0.35 -0.5,-0.45 0.53,0.71 0.97,-0.26 0.89,1.58 -0.63,0.45 -0.13,1.15 -0.65,0.23 -1.19,1.41 -0.68,-0.03 -0.5,-1.13 -1.05,-0.54 0.68,0.8 0.08,2.21 0.29,0.26 0.87,-0.32 -0.5,0.99 1.36,-0.73 -0.41,0.73 0.41,0.87 -0.31,0.39 -1.02,0.06 -0.24,0.77 0.39,1.15 0.71,0 0.03,0.58 -0.5,0.16 -0.29,1.41 -0.81,0.36 -0.21,0.99 0.1,0.74 0.97,0.29 0.71,1.47 -1.49,0.87 -0.56,-0.55 -0.63,0.06 -0.5,1.13 -0.6,-0.03 -0.1,0.67 -0.5,0.22 -0.32,1.09 -1.07,0.07 -0.27,1.18 -1.15,-0.13 -0.29,-0.8 -0.55,0.26 0.17,-1.51 -1,-1.68 0,0 -1.34,-1.34 -3.98,0 -0.04,-0.76 0,0 -1.54,-1.88 0,0 -3.09,-0.21 0,0 -2.23,-1.89 -3.43,-3.98 0,0 -3.26,-3.36 -2.4,-0.2 0,0 -2.75,0 -2.23,-1.05 -0.34,-4.83 2.23,-1.89 0,0 1.2,-1.05 0,-1.46 -1.47,-2.43 0,0 3.92,-3.09 0,0 1.66,-0.17 0,0 0.68,0.13 0.65,-0.87 -1.35,-2.48 -0.22,-1.06 0.59,-0.5 4.16,-2.57 3.11,-1.02 1.63,0.29 2.59,-0.65 z"
        title="Ulsan"
        id="KR-31"
    />
</svg>
